/* XPM */
static char *bb9f18c9efcc4216edfa599f69b0eb9atatlgpX7n12b0J7d[] = {
/* columns rows colors chars-per-pixel */
"64 64 105 2 ",
"   c None",
".  c black",
"X  c #272837",
"o  c #714924",
"O  c #7F5D27",
"+  c #7E5929",
"@  c #383A4B",
"#  c #393A52",
"$  c #3E4155",
"%  c #3E415D",
"&  c gray29",
"*  c #42455C",
"=  c #434662",
"-  c #444865",
";  c #4C4F6E",
":  c #4D506F",
">  c #4E5171",
",  c #515574",
"<  c #68686A",
"1  c #767678",
"2  c #7B7B7D",
"3  c #984E2F",
"4  c #825C25",
"5  c #8F672A",
"6  c #8F692C",
"7  c #936827",
"8  c #93652A",
"9  c #9E742D",
"0  c #AF6F2E",
"q  c #B06F2D",
"w  c #A4742C",
"e  c #AF702B",
"r  c #B3732C",
"t  c #B47D2D",
"y  c #BA7D2F",
"u  c #A56A31",
"i  c #B37634",
"p  c #B57E31",
"a  c #B87F3C",
"s  c #8D7543",
"d  c #B87F41",
"f  c #BD842D",
"g  c #B38929",
"h  c #BC8F2D",
"j  c #BC922D",
"k  c #B78231",
"l  c #BD8631",
"z  c #CD9B27",
"x  c #C3932C",
"c  c #CA962B",
"v  c #CD9B29",
"b  c #C19431",
"n  c #CE9F32",
"m  c #D3A12F",
"M  c #D2A131",
"N  c #BC8A4F",
"B  c #C29242",
"V  c #C59155",
"C  c #C59A56",
"Z  c #C2915C",
"A  c #CC9C5C",
"S  c #CEAA4D",
"D  c #D8A942",
"F  c #D5AF4F",
"G  c #DCAF4D",
"H  c #DCB14B",
"J  c #D1A05E",
"K  c #DCB356",
"L  c #DDB65C",
"P  c #D9AE67",
"I  c #D9AE68",
"U  c #DDB869",
"Y  c #E2BF6E",
"T  c #E1C16D",
"R  c #5C6286",
"E  c gray58",
"W  c #AEAFB1",
"Q  c #A4A4BE",
"!  c #E2C887",
"~  c #E2C88E",
"^  c #EBCC96",
"/  c #ECD296",
"(  c #EDD499",
")  c #EFD6A0",
"_  c #EFDAAB",
"`  c #F1D6A0",
"'  c #F2DCB1",
"]  c #BDBDC5",
"[  c #B4B5C9",
"{  c #BDBACA",
"}  c #BFC0C2",
"|  c #CAC9CE",
" . c #C5C7D3",
".. c #CECED2",
"X. c #CCCBD9",
"o. c #D2D2DD",
"O. c #D7D8DB",
"+. c #D9D9DB",
"@. c #D3D4E0",
"#. c #DBDBE5",
"$. c #DADBE8",
"%. c #E3E2E5",
"&. c #E5E6EA",
"*. c #E7E8EC",
"=. c #E8E8EE",
/* pixels */
"                                                                                                                                ",
"                                                        . . . . . . . .                                                         ",
"                                                . . . . ] X.$.$.$.$.X.{ . . . .                                                 ",
"                                      . . . . . U Y & | o.#.#.$.#.#.#.o.| & U U . . . . .                                       ",
"                                . . . P P Y P Y 3 3 & 2 $.=.*.*.=.=.=.&.2 & 3 3 U U U U P . . .                                 ",
"                              . H T V 3 3 3 3 3 X.X.& < 2 2 2 1 R 2 2 2 < & X.X.3 3 3 3 3 J T K .                               ",
"                            . F Y T 3 Q Q [  .#.=.=.o.& & & & & & & & & & @.*.=.#. .[ Q Q 3 Y Y F .                             ",
"                            . ! H Y V 3 3 3 3 3 =.=.=.@.| W W W W W W } @.=.=.=.3 3 3 3 3 V Y L ~ .                             ",
"                            . N ( ( ( J J J J Z 3 3 3 3 3 3 3 3 u 3 3 3 3 3 3 3 Z J J J J ` ` ^ C .                             ",
"                            . p a a d ( ( ( ( ^ I I I I I I I I P P P P I I I I ^ _ _ _ _ B B B f .                             ",
"                            . f f y q q i i i A ' ' ' ' ' ' ' ' ' ' ' ' ' ' ' ' L M n n n c z y k .                             ",
"                            . f f f q e q q r y i q i 0 l l l l l l y x y y b c D G G v z z z x f .                             ",
"                            . f x y e e q q r y f f f f f v v v v v v v v m H H G G G v v v z y k .                             ",
"                            . f y y e e q q r y f f f f f v . . . . v v v m H H H H G v v v z f k .                             ",
"                            . f y x q q q q r x f f f f f . &.&.=.*.. v v M G H H H H m v v z y f .                             ",
"                            . f y x q q q q q y x f f t . %.*.. . =.%.. c M G G H H H v z z v x k .                             ",
"                            . f f f q q q q r f x y y . +...... . ....+.. m H H H H G v z v z y k .                             ",
"                            . f f f q q q q r f y y x . +.. . . . . . +.. m H H H H H m z z z y k .                             ",
"                            . f f f q q q q r x y x f . +.E 1 . . 1 E +.. m H H H H H v v z v x f .                             ",
"                            . l x y q q q q q y y x y 4 . &.*.. . *.&.. 4 m H H H H G v z v v f k .                             ",
"                            . x y x q q q q r x f f f y 5 . &.W W *.. 7 c M H H H H H m v v z f k .                             ",
"                            . . q r q q q q e y f f f x f w . . . . w c v M H H H H H v v v v f . .                             ",
"                            . # . . . q q q e x f f f f f c h h h j c z z M G H H H G v v . . . $ .                             ",
"                            . - = = @ . . . . . t f f f f v v v c z z z v M G G . . . . . ; ; = * .                             ",
"                            . = - - # # # # # X . . . . . . . . . . . . . . . . * R R > > ; > - = .                             ",
"                            . = - - # # # # # - - - - - - ; > ; : : ; : ; , R R R R R > ; > ; - = .                             ",
"                            . = - - # # # # # - - - - - - ; > ; : : : : > > R R R R R > > ; ; - * .                             ",
"                            . = - = # # # # # - - - - - - ; ; > : : : : > > R R R R R > ; > > - = .                             ",
"                            . = - - # # # # # - - - - - - > > ; : : : : > , R R R R R > : : : - = .                             ",
"                            . = - - # # # # # - - - - - - > ; ; : : : : : , R R R R R > > : : - = .                             ",
"                            . = - - # # # # # - - - - - - > > > : : : : : , R R R R R > : : : - = .                             ",
"                            . = - - # # @ @ # - - - - - - > > ; : : : : : , R R R R R > : : > - * .                             ",
"                            . = - = # # # # # - - - - - - : : : : : : : : , R R R R R > > > > - = .                             ",
"                            . = - = # # # # # - - - - - - : : : : : : : : , R R R R R > > > ; - = .                             ",
"                            . = - - # # # # $ - - - - - - : : : : : : : : , R R R R R > > > ; - = .                             ",
"                            . = - - # # # # # - - - - - - : : : : : : : : , R R R R R > ; ; > - * .                             ",
"                            . - - - # # # # # - - - - - - : : : : : : : : , R R R R R > : : : - = .                             ",
"                            . = - - # # # @ $ - - - - - - : : : : : : : : , R R R R R > : : : - = .                             ",
"                            . = - - # # # # # - - - - - - : : : : : : : , , , R R R R > : : : - * .                             ",
"                            . = - = # # # # # - - - - - - : : : : : : : , , R R R R R > : : : - = .                             ",
"                            . = - - # # # # # = - - - - - : : : : : : : : , R R R R R : : : > - = .                             ",
"                            . = - - # # # # # = - - - - - : : : : : : : : , R R R R R : : : : - = .                             ",
"                            . = - - # # # # # - - - - - - : : : : : : : : , R R R R R , : : : - * .                             ",
"                            . = - - # # # # # - - - - - - : : : : : : : : , R R R R R : : : : - = .                             ",
"                            . . - - # # # # # - - - - - - ; ; > : : : : : , R R R R R , : : : - . .                             ",
"                            . 6 . . . # # # # % - - - - - ; > ; : : : : : , R R R R R > : . . . 6 .                             ",
"                            . k w w 8 . . . . . % - - - - : > > : : : : > , R R . . . . . g g w f .                             ",
"                            . a y x 0 u u u u o . . . . . . . . . . . . . . . . s S S b x v v f k .                             ",
"                            . k x y q q q q r y y y x y f c v c v v v v c n H H H H H v z z z f k .                             ",
"                            . k f f q q q q r f x y x y f v v v v z c v v M H H H H H v z z z f k .                             ",
"                            . k y y q q q q q y f f y y f v . . . . v v z M H H H H H m z c v f k .                             ",
"                            . k x y q q q q q x f y y x f . &.*.=.*.. z v M H H H H H v v v z f k .                             ",
"                            . k x y q q q q r f x y y t . %.*.*.=.=.%.. x M H H H H H m v z z f k .                             ",
"                            . k y y q q q q r f f f x . +.............O.. M H H H H H v z v v f k .                             ",
"                            . k y x q q q q r f f f f . +.. . . . . . O.. M H H H H H v v z z f k .                             ",
"                            . k y x q q q q q x f f f . +.E 1 1 1 1 E O.. M H H H H H n z v z f k .                             ",
"                            . k f f q q q q r f f f f + . &.*.*.=.*.&.. O M H H H H H v v v v f k .                             ",
"                            . k f f q q q q r f f f f f 8 . *.*.=.=.. 6 c M H H H H H v v v z f k .                             ",
"                              . l f q q q q r f f f f f f w . . . . w c v m H H H H G m v v v f .                               ",
"                                . . . q q 0 r f f f f f l v x x j j v v z M H H G H H v v . . .                                 ",
"                                      . . . . . x f x y f v v v v v z z z M H H . . . . .                                       ",
"                                                . . . . . . . . . . . . . . . .                                                 ",
"                                                                                                                                ",
"                                                                                                                                "
};
