/* XPM */
static char *b4a0ddea438a40459c7134cc2eb926abNzOjSO4NASVYAwlZ[] = {
/* columns rows colors chars-per-pixel */
"64 64 236 2 ",
"   c None",
".  c black",
"X  c #272837",
"o  c #714924",
"O  c #383A4B",
"+  c #393950",
"@  c #393951",
"#  c #3A3951",
"$  c #383A50",
"%  c #383A51",
"&  c #393B52",
"*  c #3B3D54",
"=  c #3E3F57",
"-  c #3E4155",
";  c #3D415C",
":  c #3E415D",
">  c gray29",
",  c #404459",
"<  c #43465F",
"1  c #434660",
"2  c #434662",
"3  c #424762",
"4  c #434762",
"5  c #444662",
"6  c #444765",
"7  c #444766",
"8  c #444864",
"9  c #444865",
"0  c #464865",
"q  c #4E4F6B",
"w  c #4B4F6C",
"e  c #4C4F6E",
"r  c #4D506E",
"t  c #4D506F",
"y  c #4E5170",
"u  c #4E5171",
"i  c #505474",
"p  c #515574",
"a  c #525574",
"s  c #68686A",
"d  c #767678",
"f  c #7B7B7D",
"g  c #984E2F",
"h  c #8E682B",
"j  c #8F692C",
"k  c #97632D",
"l  c #AF6F2E",
"z  c #B06F2C",
"x  c #B06F2D",
"c  c #B06F2E",
"v  c #B06F2F",
"b  c #A4752B",
"n  c #A6742C",
"m  c #AF702B",
"M  c #B1732C",
"N  c #B2732C",
"B  c #B3732C",
"V  c #B1712F",
"C  c #B3742C",
"Z  c #B2742D",
"A  c #B47A2C",
"S  c #BA7D2F",
"D  c #A56A31",
"F  c #A46B31",
"G  c #A66A31",
"H  c #B37634",
"J  c #B67D32",
"K  c #B87F3C",
"L  c #8D7543",
"P  c #B87E40",
"I  c #B87F42",
"U  c #B8822D",
"Y  c #B8812F",
"T  c #BA822E",
"R  c #BA832E",
"E  c #BD822D",
"W  c #BD832D",
"Q  c #BF832C",
"!  c #BF832D",
"~  c #BC822E",
"^  c #BD832F",
"/  c #BB842F",
"(  c #BC842C",
")  c #BD842C",
"_  c #BC842D",
"`  c #BD842D",
"'  c #BC842F",
"]  c #B1882A",
"[  c #B48A28",
"{  c #B78130",
"}  c #B78230",
"|  c #B78231",
" . c #B78331",
".. c #BC8333",
"X. c #BD8531",
"o. c #BD8631",
"O. c #CD9A27",
"+. c #CD9C27",
"@. c #C1912E",
"#. c #C5922E",
"$. c #CC972B",
"%. c #CC972C",
"&. c #CA9A28",
"*. c #CA9B29",
"=. c #CB992B",
"-. c #CC9929",
";. c #CD9929",
":. c #CC9A28",
">. c #CD9B28",
",. c #CC9A29",
"<. c #CD9B29",
"1. c #CE9B28",
"2. c #CE992B",
"3. c #CC9A2A",
"4. c #CD9B2A",
"5. c #CC9A2B",
"6. c #CD9B2B",
"7. c #CE9A2A",
"8. c #CC9C28",
"9. c #CA982D",
"0. c #CD9A2D",
"q. c #CF9C2C",
"w. c #CF9C2D",
"e. c #C19431",
"r. c #CE9F31",
"t. c #CE9F32",
"y. c #CF9F34",
"u. c #D3A12F",
"i. c #D1A130",
"p. c #D1A131",
"a. c #D3A031",
"s. c #D2A131",
"d. c #D0A231",
"f. c #D1A231",
"g. c #D0A132",
"h. c #D3A032",
"j. c #D2A132",
"k. c #BC8A4F",
"l. c #C29240",
"z. c #C29242",
"x. c #C19344",
"c. c #C59155",
"v. c #C59A56",
"b. c #C1905B",
"n. c #C3925D",
"m. c #CE9E59",
"M. c #CA9A5F",
"N. c #CEA94D",
"B. c #CEAA4C",
"V. c #D8A942",
"C. c #D4AF4E",
"Z. c #D6AE4F",
"A. c #D9AF4C",
"S. c #DDAF4D",
"D. c #DCB14A",
"F. c #DCB04B",
"G. c #DDB04B",
"H. c #DCB14B",
"J. c #D9B04C",
"K. c #DBB14C",
"L. c #DBB04D",
"P. c #DBB14D",
"I. c #DCB04C",
"U. c #DCB14C",
"Y. c #DCB04D",
"T. c #DCB04E",
"R. c #D1A05E",
"E. c #DCB356",
"W. c #DEB75B",
"Q. c #DCB45C",
"!. c #D8AD64",
"~. c #D9AE67",
"^. c #D9AE68",
"/. c #DDB869",
"(. c #E1BF6D",
"). c #E3BE6F",
"_. c #E1C16D",
"`. c #E2C06D",
"'. c #5B6284",
"]. c #5A6384",
"[. c #596286",
"{. c #5A6286",
"}. c #5C6284",
"|. c #5C6285",
" X c #5C6286",
".X c gray58",
"XX c #AEAFB1",
"oX c #A3A3BD",
"OX c #A5A5BF",
"+X c #E2C887",
"@X c #E2C88E",
"#X c #EBCB95",
"$X c #EACC96",
"%X c #ECD296",
"&X c #EDD499",
"*X c #EFD6A0",
"=X c #EFDAAA",
"-X c #EFDAAB",
";X c #F1D6A0",
":X c #F2DCB1",
">X c #F2DDB1",
",X c #BDBDC5",
"<X c #B4B5C9",
"1X c #BDBACA",
"2X c #BFC0C2",
"3X c #CAC9CD",
"4X c #CAC9CE",
"5X c #C5C7D3",
"6X c #CDCED2",
"7X c #CACBD8",
"8X c #CBCAD9",
"9X c #CCCBD9",
"0X c #CCCCD8",
"qX c #CCCCDA",
"wX c #D2D0DA",
"eX c #D1D0DC",
"rX c #D2D3DD",
"tX c #D2D3DE",
"yX c #D3D5DF",
"uX c #D9D9DA",
"iX c #D9D9DB",
"pX c #D3D4E0",
"aX c #D8D9E3",
"sX c #DBDBE4",
"dX c #DBDCE5",
"fX c #DCDCE6",
"gX c #DDDCE7",
"hX c #DADBE8",
"jX c #E2E1E5",
"kX c #E1E2E6",
"lX c #E4E3EB",
"zX c #E5E4E9",
"xX c #E5E6E8",
"cX c #E9E8ED",
"vX c #E8E9EE",
"bX c #E8E8EF",
/* pixels */
"                                                                                                                                ",
"                                                                                                                                ",
"                                                        . . . . . . . .                                                         ",
"                                                . . . . ,X7XhXhXhXhX9X1X. . . .                                                 ",
"                                      . . . . . /./.> 4XtXsXsXhXfXfXsXwX4X> /./.. . . . .                                       ",
"                                . . . !././././.g g > f gXbXbXbXbXbXbXlXf > g g /./././.!.. . .                                 ",
"                              . P._.c.g g g g g qXqX> s f f f f f f f f s > qX9Xg g g g g m._.E..                               ",
"                            . C._._.g oXOX<X5XaXcXbXtX> > > > > > > > > > tXbXcXaX5X<XoXoXg (.(.A..                             ",
"                            . +XS._.c.g g g g g bXbXbXyX2XXXXXXXXXXXXX2XpXbXbXbXg g g g g c.).Q.@X.                             ",
"                            . k.&X&X&XR.R.R.R.b.g g g g g g g g g g g g g g g g n.R.R.R.R.;X;X&Xv..                             ",
"                            . J K K I &X&X&X&X$X^.^.^.^.^.^.^.^.!.^.!.^.^.^.!.^.#X=X-X-X=Xz.x.e.{ .                             ",
"                            . ` ^ ^ m H H H H M.>X>X>X>X>X>X>X>X>X:X>X>X>X>X>X>XQ.r.y.y.y.%.%.S T .                             ",
"                            . . . ` x z x x B S M M v H ..X.X.X.X.X.X.X.X.X.X.#.V.D.G.w.8.8.8.@.U .                             ",
"                            . xXxX. x x x x C ` ^ ^ E ^ ` >.0.>.0.w.>.0.8.h.G.G.D.D.G.w.>.8.O.` U .                             ",
"                            . . xXjX. z x x C ` ` ` E E ` O.>.>.8.>.>.>.8.h.G.G.D.G.G.8.>.>.>.^ T .                             ",
"                            . . 6X6XuX. x x C ` ` ` ( ( T >.>.>.>.>.>.>.8.h.G.G.G.G.P.w.>.>.>.X.U .                             ",
"                            . . . . uX. x x C ` ` ` ^ ` ` >.>.>.8.O.2.8.+.h.D.P.G.G.D.w.>.>.>.` U .                             ",
"                            . . d .XuX. x x C ` ` ` ^ ` ` >.>.>.2.+.+.O.+.h.D.G.G.D.D.w.>.>.>.` U .                             ",
"                            . . cXcX. z x x C ` ` ` ^ ` ` >.>.>.+.+.+.+.8.u.G.G.P.D.G.w.>.>.>.` T .                             ",
"                            . XXcX. x x x x C ` ` ` ^ ` ` >.>.>.8.O.2.8.1.u.G.G.G.D.D.w.>.>.>.` U .                             ",
"                            . . . ` x x x x C ` ` ` ^ ` ` >.>.>.2.O.8.2.8.s.D.G.K.H.H.w.>.>.>.` U .                             ",
"                            . ` ` ` x x x x C ` ` ` ^ ` ` >.>.>.+.+.+.+.8.h.D.D.H.H.H.w.>.>.>.` T .                             ",
"                            . . M M x v x x C ` ` ` ` ` ` >.>.>.>.>.O.8.8.h.G.G.H.P.H.8.>.2.>.` . .                             ",
"                            . = . . . x x x C ` ` ` ` ` ` %.>.>.>.8.O.1.8.f.G.D.G.P.G.w.0.. . . - .                             ",
"                            . 2 2 5 O . . . . . A ` ` _ ` *.>.>.>.>.>.>.>.s.S.S.. . . . . e w 5 < .                             ",
"                            . 2 9 9 + + % % + X . . . . . . . . . . . . . . . . ,  X Xy t t t 9 2 .                             ",
"                            . 2 9 9 + + % % * 9 7 9 9 9 6 e e e e e e e w a {.{.{. X Xy t t t 9 < .                             ",
"                            . 2 9 7 + + % % * 9 9 9 9 9 9 t t t t t t t e a {. X X X Xy t t t 9 2 .                             ",
"                            . 2 9 9 @ @ + @ * 9 9 9 9 9 9 y t t t t t t y p  X X X X Xy t t t 9 < .                             ",
"                            . 2 9 9 & + @ @ * 9 9 9 9 9 9 e t t t t t t e p }. X X X Xy t t t 9 < .                             ",
"                            . 2 9 9 + & @ % % 9 9 9 9 9 9 t t t t t t t t a }. X X X Xy t t t 9 2 .                             ",
"                            . 2 9 9 & + @ @ ; 9 9 9 9 9 9 t t t t t t t t a }. X X X Xy t t t 9 < .                             ",
"                            . 2 9 6 + & % % * 9 9 9 9 9 8 r t t t t t t t u |.|. X X Xu y u t 9 2 .                             ",
"                            . 2 9 6 & + % % * 9 9 9 9 9 8 t t t t t t t t a |.|. X X Xu w u t 9 < .                             ",
"                            . 2 9 9 + + % % * 9 9 9 9 9 8 t t t t t t t y p |.|. X X Xu u e e 6 2 .                             ",
"                            . 2 9 9 + + % % * 9 9 9 9 8 8 t t t t t t t y p |.|. X X Xy e u u 6 < .                             ",
"                            . 2 9 9 + & % % * 9 9 9 9 9 8 t t t t t t t t p {. X X X Xy t t t 9 < .                             ",
"                            . 2 9 9 & + % % * 9 9 9 9 9 8 t t t t t t t t p }. X X X Xy t t t 9 2 .                             ",
"                            . 2 6 6 @ @ % % * 9 9 9 9 9 8 t t t t t t t t a }. X X X Xy t t t 9 < .                             ",
"                            . 2 6 6 @ @ + + * 9 9 9 9 9 8 t t t t t t t t a }. X X X Xy t t t 9 < .                             ",
"                            . 2 9 9 @ @ % % & 7 9 9 9 9 9 t t t t t t t t p |.|.|. X Xi t t t 9 2 .                             ",
"                            . 2 9 9 @ @ % % = 7 9 9 9 9 8 t t t t t t t t p ].|.|. X Xy t t t 9 < .                             ",
"                            . 2 9 9 + & % % * 6 9 9 9 9 8 t t t t t t t t p |.|. X X Xy t t t 9 < .                             ",
"                            . 2 9 9 & + % % * 6 9 9 9 9 9 t t t t t t t t p |.|. X X Xy t t t 9 2 .                             ",
"                            . 2 9 9 & + % % * 9 9 9 9 9 9 t e y t t t t t a |.|. X X Xu y u t 9 < .                             ",
"                            . . 9 7 + & % % * 9 9 9 9 9 9 e y e t t t t y u |.|. X X Xy e u t 6 . .                             ",
"                            . j . . . + + + + : 9 9 9 9 9 t e y t t t t t p |.|. X X Xy u . . . h .                             ",
"                            . | n n k . . . . . : 9 9 9 9 t e u t t t t t p ].].. . . . . ] [ b T .                             ",
"                            . | ` ` M F F F G o . . . . . . . . . . . . . . . . L B.B.e.@.>.>._ U .                             ",
"                            . . . ` l v x x B ^ ^ T T _ T 9.0.*.5.5.5.5.5.y.P.G.P.D.D.w.>.>.>._ | .                             ",
"                            . cXcX. x v x x B ` ` ` ` ` ` >.0.>.>.>.>.>.8.s.G.D.G.P.G.w.>.>.>._ | .                             ",
"                            . bXbXjX. v x x B ^ ` ` ` ` ` >.8.>.>.>.0.>.>.s.D.H.G.D.G.0.>.>.>._ | .                             ",
"                            . 6X6X6XiX. x x C ` ` ` ` ` ` 8.8.>.0.>.>.0.8.h.G.P.P.G.P.8.>.>.>._ U .                             ",
"                            . . . . iX. x x C ` ` ` ` ` ` >.0.>.>.>.>.>.8.h.G.G.D.D.G.w.>.>.>._ | .                             ",
"                            . d d .XiX. x x C ` ` ` ` ` ` >.0.>.>.>.>.>.1.f.G.H.H.H.P.w.>.>.>.` | .                             ",
"                            . cXbXxX. x x x C ` ` ` ` ` ` >.8.>.0.>.8.0.8.f.G.H.H.P.P.1.>.>.>.` | .                             ",
"                            . bXcX. M x x x C ` ` ` ` ` X.>.8.0.8.>.0.8.>.s.G.G.P.D.D.w.+.8.8.` | .                             ",
"                            . . . ( l x x x C ` ` ` ` ` ` >.>.>.>.>.>.>.>.s.G.G.G.D.G.w.8.8.O.` U .                             ",
"                            .  .^ E x x x x M ` ` ` ` ` ` >.>.>.0.>.>.>.8.s.G.P.P.D.G.w.8.>.>.` | .                             ",
"                              . X.X.x v x x B ` ` ` ` ` ` >.>.>.8.>.0.8.8.f.G.G.G.D.P.w.>.>.>.^ .                               ",
"                                . . . x x x z @.` @.S S ^ $.O.>.>.*.8.6.8.s.G.P.G.G.P.w.>.. . .                                 ",
"                                      . . . . . @.S Q Q ^ >.O.O.*.*.8.6.6.g.H.H.. . . . .                                       ",
"                                                . . . . . . . . . . . . . . . .                                                 ",
"                                                                                                                                "
};
