/* XPM */
static char *b535a106047f407db42e879831002e2f8JFaAIvNfJAMKhFd[] = {
/* columns rows colors chars-per-pixel */
"64 64 236 2 ",
"   c None",
".  c black",
"X  c #272837",
"o  c #714924",
"O  c #383A4B",
"+  c #393950",
"@  c #393951",
"#  c #3A3951",
"$  c #383A50",
"%  c #383A51",
"&  c #393B52",
"*  c #3B3D54",
"=  c #3E3F57",
"-  c #3E4155",
";  c #3D415C",
":  c #3E415D",
">  c gray29",
",  c #404459",
"<  c #43465F",
"1  c #434660",
"2  c #434662",
"3  c #424762",
"4  c #434762",
"5  c #444662",
"6  c #444765",
"7  c #444766",
"8  c #444864",
"9  c #444865",
"0  c #464865",
"q  c #4E4F6B",
"w  c #4B4F6C",
"e  c #4C4F6E",
"r  c #4D506E",
"t  c #4D506F",
"y  c #4E5170",
"u  c #4E5171",
"i  c #505474",
"p  c #515574",
"a  c #525574",
"s  c #68686A",
"d  c #767678",
"f  c #7B7B7D",
"g  c #984E2F",
"h  c #8E682B",
"j  c #8F692C",
"k  c #97632D",
"l  c #AF6F2E",
"z  c #B06F2C",
"x  c #B06F2D",
"c  c #B06F2E",
"v  c #B06F2F",
"b  c #A4752B",
"n  c #A6742C",
"m  c #AF702B",
"M  c #B1732C",
"N  c #B2732C",
"B  c #B3732C",
"V  c #B1712F",
"C  c #B3742C",
"Z  c #B2742D",
"A  c #B47A2C",
"S  c #BA7D2F",
"D  c #A56A31",
"F  c #A46B31",
"G  c #A66A31",
"H  c #B37634",
"J  c #B67D32",
"K  c #B87F3C",
"L  c #8D7543",
"P  c #B87E40",
"I  c #B87F42",
"U  c #B8822D",
"Y  c #B8812F",
"T  c #BA822E",
"R  c #BA832E",
"E  c #BD822D",
"W  c #BD832D",
"Q  c #BF832C",
"!  c #BF832D",
"~  c #BC822E",
"^  c #BD832F",
"/  c #BB842F",
"(  c #BC842C",
")  c #BD842C",
"_  c #BC842D",
"`  c #BD842D",
"'  c #BC842F",
"]  c #B1882A",
"[  c #B48A28",
"{  c #B78130",
"}  c #B78230",
"|  c #B78231",
" . c #B78331",
".. c #BC8333",
"X. c #BD8531",
"o. c #BD8631",
"O. c #CD9A27",
"+. c #CD9C27",
"@. c #C1912E",
"#. c #C5922E",
"$. c #CC972B",
"%. c #CC972C",
"&. c #CA9A28",
"*. c #CA9B29",
"=. c #CB992B",
"-. c #CC9929",
";. c #CD9929",
":. c #CC9A28",
">. c #CD9B28",
",. c #CC9A29",
"<. c #CD9B29",
"1. c #CE9B28",
"2. c #CE992B",
"3. c #CC9A2A",
"4. c #CD9B2A",
"5. c #CC9A2B",
"6. c #CD9B2B",
"7. c #CE9A2A",
"8. c #CC9C28",
"9. c #CA982D",
"0. c #CD9A2D",
"q. c #CF9C2C",
"w. c #CF9C2D",
"e. c #C19431",
"r. c #CE9F31",
"t. c #CE9F32",
"y. c #CF9F34",
"u. c #D3A12F",
"i. c #D1A130",
"p. c #D1A131",
"a. c #D3A031",
"s. c #D2A131",
"d. c #D0A231",
"f. c #D1A231",
"g. c #D0A132",
"h. c #D3A032",
"j. c #D2A132",
"k. c #BC8A4F",
"l. c #C29240",
"z. c #C29242",
"x. c #C19344",
"c. c #C59155",
"v. c #C59A56",
"b. c #C1905B",
"n. c #C3925D",
"m. c #CE9E59",
"M. c #CA9A5F",
"N. c #CEA94D",
"B. c #CEAA4C",
"V. c #D8A942",
"C. c #D4AF4E",
"Z. c #D6AE4F",
"A. c #D9AF4C",
"S. c #DDAF4D",
"D. c #DCB14A",
"F. c #DCB04B",
"G. c #DDB04B",
"H. c #DCB14B",
"J. c #D9B04C",
"K. c #DBB14C",
"L. c #DBB04D",
"P. c #DBB14D",
"I. c #DCB04C",
"U. c #DCB14C",
"Y. c #DCB04D",
"T. c #DCB04E",
"R. c #D1A05E",
"E. c #DCB356",
"W. c #DEB75B",
"Q. c #DCB45C",
"!. c #D8AD64",
"~. c #D9AE67",
"^. c #D9AE68",
"/. c #DDB869",
"(. c #E1BF6D",
"). c #E3BE6F",
"_. c #E1C16D",
"`. c #E2C06D",
"'. c #5B6284",
"]. c #5A6384",
"[. c #596286",
"{. c #5A6286",
"}. c #5C6284",
"|. c #5C6285",
" X c #5C6286",
".X c gray58",
"XX c #AEAFB1",
"oX c #A3A3BD",
"OX c #A5A5BF",
"+X c #E2C887",
"@X c #E2C88E",
"#X c #EBCB95",
"$X c #EACC96",
"%X c #ECD296",
"&X c #EDD499",
"*X c #EFD6A0",
"=X c #EFDAAA",
"-X c #EFDAAB",
";X c #F1D6A0",
":X c #F2DCB1",
">X c #F2DDB1",
",X c #BDBDC5",
"<X c #B4B5C9",
"1X c #BDBACA",
"2X c #BFC0C2",
"3X c #CAC9CD",
"4X c #CAC9CE",
"5X c #C5C7D3",
"6X c #CDCED2",
"7X c #CACBD8",
"8X c #CBCAD9",
"9X c #CCCBD9",
"0X c #CCCCD8",
"qX c #CCCCDA",
"wX c #D2D0DA",
"eX c #D1D0DC",
"rX c #D2D3DD",
"tX c #D2D3DE",
"yX c #D3D5DF",
"uX c #D9D9DA",
"iX c #D9D9DB",
"pX c #D3D4E0",
"aX c #D8D9E3",
"sX c #DBDBE4",
"dX c #DBDCE5",
"fX c #DCDCE6",
"gX c #DDDCE7",
"hX c #DADBE8",
"jX c #E2E1E5",
"kX c #E1E2E6",
"lX c #E4E3EB",
"zX c #E5E4E9",
"xX c #E5E6E8",
"cX c #E9E8ED",
"vX c #E8E9EE",
"bX c #E8E8EF",
/* pixels */
"                                                                                                                                ",
"                                                                                                                                ",
"                                                        . . . . . . . .                                                         ",
"                                                . . . . 1X8XhXhXhXhX8X,X. . . .                                                 ",
"                                      . . . . . /./.> 3XwXsXfXfXfXfXsXeX3X> /./.. . . . .                                       ",
"                                . . . !././././.g g > f lXbXbXbXbXbXbXgXf > g g /./././.!.. . .                                 ",
"                              . E.`.m.g g g g g qX0X> s f f f f f f f f s > 0XqXg g g g g c._.L..                               ",
"                            . Z.(.`.g oXoX<X5XaXbXbXtX> > > > > > > > > > yXbXbXaX2X<X<XoXg `.`.Z..                             ",
"                            . @XQ.).c.g g g g g bXbXbXpX2XXXXXXXXXXXXX2XpXbXbXbXg g g g g c.`.L.@X.                             ",
"                            . v.&X;X;XR.R.R.R.n.g g g g g g g g g g g g g g g g b.R.R.R.R.&X&X&Xk..                             ",
"                            . Y e.x.x.=X-X-X-X#X~.~.~.~.~.~.^.~.^.^.^.^.^.^.^.!.$X&X&X&X&XI P K J .                             ",
"                            . Y Y 1.*.t.y.y.t.Q.:X:X:X:X>X>X>X>X:X:X>X>X>X>X>X>XM.H H H H l W W ` .                             ",
"                            . Y ` 1.1.1.q.H.G.V.#.o.o.o.o.o.o.o.o.o.o...H l V V S C z z z z ` . . .                             ",
"                            . Y ` 1.1.*.q.H.H.A.A.H.h.1.1.2.2.0.2.1.1.) W W ` ` ` C z z z v . xXxX.                             ",
"                            . U ` 1.1.1.q.H.H.H.H.H.h.1.1.1.*.1.*.1.*.` W ` ` ` ` C V z z . jXxX. .                             ",
"                            . U W 1.1.1.q.H.H.H.H.A.h.1.1.8.O.1.1.1.1.Y W ` ` ` ` C l z . iX6X6X. .                             ",
"                            . U ` 8.O.8.q.H.H.H.H.G.a.1.O.8.1.1.*.1.1.` W X.` ` ` C z z . uX. . . .                             ",
"                            . U ` 8.*.1.q.H.H.H.H.G.u.1.1.1.8.O.O.1.1.` W W ` ` ` C v v . uX.Xd . .                             ",
"                            . U ` 1.1.1.q.H.H.H.H.A.u.1.1.1.1.*.8.1.1.` ` W ` ` ` C z z z . bXbX. .                             ",
"                            . U ` 8.1.1.q.H.H.H.H.H.u.1.1.1.1.1.1.1.1.W W X.` ` ` C z z z z . bXXX.                             ",
"                            . U ` 1.1.1.q.H.H.H.H.G.u.+.O.*.1.1.1.8.1.` W X.W ` ` C z z z z W . . .                             ",
"                            . U ` 1.*.1.q.H.H.H.G.A.a.+.8.1.1.8.*.O.1.` W X.W ` ` C z v z z ` ` ` .                             ",
"                            . . X.1.1.2.q.H.H.H.H.H.j.+.1.1.*.O.O.*.1.` ` ` ` ` ` C z v l z C C . .                             ",
"                            . - . . . 1.q.I.I.I.A.H.j.+.O.*.1.1.8.1.%.` ` ` ` ` ` C z v V . . . - .                             ",
"                            . < 4 w q . . . . . S.S.j.1.1.1.1.1.1.1.1.Y ` ` ` A . . . . . O 4 1 4 .                             ",
"                            . 1 9 y t t y  X X, . . . . . . . . . . . . . . . . X @ @ $ @ @ 9 9 4 .                             ",
"                            . 1 9 t t t u  X X{.{.{.i q r w t t q w t 7 7 7 9 7 9 * % % @ @ 9 9 4 .                             ",
"                            . 1 9 t t t y  X X X{.{.u y t t t t y t t 7 9 9 9 9 9 * % % @ @ 9 9 4 .                             ",
"                            . 1 9 t t t y  X X X X Xp t t t t t t t t 9 9 9 9 9 9 * % % @ @ 9 9 4 .                             ",
"                            . 1 9 t t t y  X X X X Xp t t t t t t t t 9 9 9 9 9 9 * % % @ @ 9 9 4 .                             ",
"                            . 1 9 t t t y  X X X X}.p t t t t t t t t 9 9 9 9 9 9 * % % @ @ 9 9 4 .                             ",
"                            . 1 9 t t t y  X X X X Xp t t t t t t t t 9 9 9 9 9 9 * % @ @ @ 7 7 4 .                             ",
"                            . 4 7 t y w y  X X X X}.p t t t t t t t t 4 9 9 9 9 9 * % % @ @ 9 9 7 .                             ",
"                            . , 9 t t y y  X X X X}.p t t t t t t t t 9 9 9 9 9 9 * % % @ @ 9 9 4 .                             ",
"                            . 5 9 y y y y  X X X X}.p t t t t t t t t 9 9 9 9 9 9 * % % @ @ 9 9 4 .                             ",
"                            . 5 9 w y y y  X X X X}.p t t t t t t t t 4 9 9 9 9 9 * % % @ @ 9 9 4 .                             ",
"                            . 5 9 t t t y  X X X X}.p t t t t t t t t 9 9 9 9 9 9 * $ & @ @ 9 9 4 .                             ",
"                            . 4 9 y t t y  X X X X}.p t t t t t t t t 9 9 9 9 9 9 * $ $ @ @ 9 9 4 .                             ",
"                            . , 7 t t t y  X X X X}.p t t t t t t t t 4 9 9 9 9 9 * $ $ @ @ 9 9 4 .                             ",
"                            . 5 9 t t t y  X X X X}.p t t t t t t t t 9 9 9 9 9 9 * $ @ @ @ 9 9 4 .                             ",
"                            . 5 9 y t t y {. X X X}.p t t t t t t t t 4 9 9 9 9 9 * @ & @ @ 9 9 4 .                             ",
"                            . 5 9 w t t y {. X X X}.p t t t t t t t t 9 9 9 9 9 9 * & @ @ @ 9 9 4 .                             ",
"                            . , 9 t t t y  X X X X}.a t t t t t t t t 9 9 9 9 9 9 * % % @ @ 9 9 4 .                             ",
"                            . 4 9 y t t u  X X X X].a t t t t t t t t 9 9 9 9 9 9 * % % @ @ 9 9 4 .                             ",
"                            . 4 7 t q u u  X X X X}.a t t t t t t t t 4 9 9 9 9 9 * % % @ @ 9 9 4 .                             ",
"                            . . 7 t t u u  X X X X}.a t t t t t t t y 9 9 9 9 9 9 * % & @ @ 9 9 . .                             ",
"                            . j . . . y u  X X X X}.i t t t t t t t t 9 9 9 9 9 ; & @ @ @ . . . j .                             ",
"                            . U n [ ] . . . . . ]. Xi t t t t t t t t 4 9 9 9 , . . . . . k n n  ..                             ",
"                            .  .` 1.1.#.o.B.B.L . . . . . . . . . . . . . . . . o G D D F V ` `  ..                             ",
"                            .  .` 8.1.1.i.K.K.K.L.L.y.*.9.9.2.9.9.2.9.Y ` U Y X.` V z z z V ` . . .                             ",
"                            .  .` 8.8.O.q.D.D.D.G.A.j.8.8.1.1.1.8.8.1.` ` ` ` ` ` C z v z z . bXbX.                             ",
"                            .  .U 1.1.*.q.D.D.K.H.H.j.8.8.2.2.1.1.1.8.` ` ` ` ` ` C z z v . jXbXbX.                             ",
"                            .  .` 1.1.1.q.H.H.H.H.G.a.8.1.1.8.q.1.8.8.o.` ` ` ` ` C z z . iX6X6X6X.                             ",
"                            . Y ` 8.1.1.q.H.H.H.H.G.a.8.2.1.8.2.1.2.1.W ` ` ` ` ` C v z . iX. . . .                             ",
"                            .  .` 8.1.8.q.H.H.H.H.G.j.8.8.8.8.8.2.1.1.` ` ` ` ` ` C z z . iX.Xd d .                             ",
"                            . Y U 1.1.8.q.H.H.H.H.G.j.+.8.2.2.8.8.*.1.` ` ` ` ` ` C z v z . xXbXbX.                             ",
"                            .  .` 1.1.*.q.I.H.H.H.H.g.1.2.8.8.8.1.2.1.` ` ` ` ` ` C V z z z . bXbX.                             ",
"                            . Y ` 8.1.1.q.I.H.H.H.I.j.q.8.8.2.2.6.6.1.` ` ` ` ` ` C z z v z ` . . .                             ",
"                            .  .` 8.1.1.q.H.H.H.H.H.h.8.8.2.8.8.6.+.1.` ` ` ` ` W V z z z z o.`  ..                             ",
"                              . U 1.1.1.q.H.H.H.H.H.h.1.8.8.2.1.6.8.*.` ` ` ` ` o.C z l v z X.Y .                               ",
"                                . . . 8.q.L.I.I.H.A.a.+.1.1.1.*.O.1.$.S ` ` ` ` ` C m v V . . .                                 ",
"                                      . . . . . H.H.j.6.*.1.*.*.O.;.;.@.W W S @.. . . . .                                       ",
"                                                . . . . . . . . . . . . . . . .                                                 ",
"                                                                                                                                "
};
