/* XPM */
static char *_483258772934496ed3377860ebd72469D6NM6KtTPl7vZ5S[] = {
/* columns rows colors chars-per-pixel */
"64 64 217 2 ",
"   c None",
".  c black",
"X  c #272837",
"o  c #714924",
"O  c #383A4B",
"+  c #393950",
"@  c #393951",
"#  c #3A3951",
"$  c #383A50",
"%  c #383A51",
"&  c #393B52",
"*  c #3B3D54",
"=  c #3E3F57",
"-  c #3E4155",
";  c #3D415C",
":  c #3E415D",
">  c gray29",
",  c #404459",
"<  c #43465F",
"1  c #434660",
"2  c #434662",
"3  c #424762",
"4  c #434762",
"5  c #444662",
"6  c #444765",
"7  c #444766",
"8  c #444864",
"9  c #444865",
"0  c #464865",
"q  c #4E4F6B",
"w  c #4B4F6C",
"e  c #4C4F6E",
"r  c #4D506E",
"t  c #4D506F",
"y  c #4E5170",
"u  c #4E5171",
"i  c #505474",
"p  c #515574",
"a  c #525574",
"s  c #68686A",
"d  c #7B7B7D",
"f  c #984E2F",
"g  c #8E682B",
"h  c #8F692C",
"j  c #97632D",
"k  c #AF6F2E",
"l  c #B06F2C",
"z  c #B06F2D",
"x  c #B06F2E",
"c  c #B06F2F",
"v  c #A4752B",
"b  c #A6742C",
"n  c #AF702B",
"m  c #B1732C",
"M  c #B2732C",
"N  c #B3732C",
"B  c #B1712F",
"V  c #B3742C",
"C  c #B2742D",
"Z  c #B47A2C",
"A  c #BA7D2F",
"S  c #A56A31",
"D  c #A46B31",
"F  c #A66A31",
"G  c #B37634",
"H  c #B67D32",
"J  c #B87F3C",
"K  c #8D7543",
"L  c #B87E40",
"P  c #B87F42",
"I  c #B8822D",
"U  c #B8812F",
"Y  c #BA832E",
"T  c #BD822D",
"R  c #BD832D",
"E  c #BF832C",
"W  c #BF832D",
"Q  c #BC822E",
"!  c #BB842F",
"~  c #BC842C",
"^  c #BD842C",
"/  c #BC842D",
"(  c #BD842D",
")  c #BC842F",
"_  c #B1882A",
"`  c #B48A28",
"'  c #B78130",
"]  c #B78230",
"[  c #B78231",
"{  c #B78331",
"}  c #BC8333",
"|  c #BD8531",
" . c #BD8631",
".. c #CD9A27",
"X. c #CD9C27",
"o. c #C1912E",
"O. c #C5922E",
"+. c #CA9B29",
"@. c #CB992B",
"#. c #CC9929",
"$. c #CD9929",
"%. c #CC9A28",
"&. c #CD9B28",
"*. c #CD9B29",
"=. c #CC9A2A",
"-. c #CD9B2A",
";. c #CC9A2B",
":. c #CD9B2B",
">. c #CE9A2A",
",. c #CC9C28",
"<. c #CC9D28",
"1. c #CA982D",
"2. c #CF9C2C",
"3. c #CF9C2D",
"4. c #C19431",
"5. c #CE9F31",
"6. c #CE9F32",
"7. c #CF9F34",
"8. c #D3A12F",
"9. c #D1A130",
"0. c #D1A131",
"q. c #D3A031",
"w. c #D2A131",
"e. c #D0A231",
"r. c #D1A231",
"t. c #D0A132",
"y. c #D3A032",
"u. c #D2A132",
"i. c #BC8A4F",
"p. c #C29240",
"a. c #C29242",
"s. c #C19344",
"d. c #C59155",
"f. c #C59A56",
"g. c #C1905B",
"h. c #C3925D",
"j. c #CE9E59",
"k. c #CA9A5F",
"l. c #CEA94D",
"z. c #CEAA4C",
"x. c #D8A942",
"c. c #D4AF4E",
"v. c #D6AE4F",
"b. c #D9AF4C",
"n. c #DDAF4D",
"m. c #DCB14A",
"M. c #DCB04B",
"N. c #DDB04B",
"B. c #DCB14B",
"V. c #D9B04C",
"C. c #DBB14C",
"Z. c #DBB04D",
"A. c #DBB14D",
"S. c #DCB04C",
"D. c #DCB14C",
"F. c #DCB04D",
"G. c #DCB04E",
"H. c #D1A05E",
"J. c #DCB356",
"K. c #DEB75B",
"L. c #DCB45C",
"P. c #D8AD64",
"I. c #D9AE67",
"U. c #D9AE68",
"Y. c #DDB869",
"T. c #E1BF6D",
"R. c #E3BE6F",
"E. c #E1C16D",
"W. c #E2C06D",
"Q. c #5B6284",
"!. c #5A6384",
"~. c #596286",
"^. c #5A6286",
"/. c #5C6284",
"(. c #5C6285",
"). c #5C6286",
"_. c #AEAFB1",
"`. c #A3A3BD",
"'. c #A5A5BF",
"]. c #E2C887",
"[. c #E2C88E",
"{. c #EBCB95",
"}. c #EACC96",
"|. c #ECD296",
" X c #EDD499",
".X c #EFD6A0",
"XX c #EFDAAA",
"oX c #EFDAAB",
"OX c #F1D6A0",
"+X c #F2DCB1",
"@X c #F2DDB1",
"#X c #BDBDC5",
"$X c #B4B5C9",
"%X c #BDBACA",
"&X c #BFC0C2",
"*X c #CAC9CD",
"=X c #CAC9CE",
"-X c #C5C7D3",
";X c #CACBD8",
":X c #CBCAD9",
">X c #CCCBD9",
",X c #CCCCD8",
"<X c #CCCCDA",
"1X c #D2D0DA",
"2X c #D1D0DC",
"3X c #D2D3DD",
"4X c #D2D3DE",
"5X c #D3D5DF",
"6X c #D3D4E0",
"7X c #D8D9E3",
"8X c #DBDBE4",
"9X c #DBDCE5",
"0X c #DCDCE6",
"qX c #DDDCE7",
"wX c #DADBE8",
"eX c #E4E3EB",
"rX c #E8E8EF",
/* pixels */
"                                                                                                                                ",
"                                                        . . . . . . . .                                                         ",
"                                                . . . . %X:XwX9XwXwX:X#X. . . .                                                 ",
"                                      . . . . . Y.Y.> *X2X8X9X9X0X0X9X2X*X> Y.Y.. . . . .                                       ",
"                                . . . I.Y.Y.Y.Y.f f > d eXrXeXeXrXrXrX0Xd > f f Y.Y.Y.Y.I.. . .                                 ",
"                              . J.T.j.f f f f f >X,X> s d d d d d d d d s > <X,Xf f f f f d.W.C..                               ",
"                            . v.T.T.f `.`.$X-X7XrXrX4X> > > > > > > > > > 5XrXrX2X-X$X$X`.f W.W.v..                             ",
"                            . [.K.R.d.f f f f f rXrXrX6X*X_._._._._._.&X6XrXrXrXf f f f f d.W.G.]..                             ",
"                            . f. XOXOXH.H.H.H.h.f f f f f f f f f f f f f f f f g.H.H.H.H. X X Xi..                             ",
"                            . U 4.a.s.oXoXoXXX{.I.I.I.I.I.U.U.U.U.I.U.U.I.I.U.U.}. X X X XP J J H .                             ",
"                            . U U &.&.6.7.6.6.L.+X+X+X+X@X+X@X@X+X+X@X@X@X@X+X+Xk.G G G G B ' W ( .                             ",
"                            . U W &.&.&.5.n.b.x.O. . . . . . . . .| | | B B k G A B l k l l ( ( ( .                             ",
"                            . U ( &.&.&.3.n.B.B.n.n.u.&.;.+.2.;.>.>.;.( ( ( ( ( ^ V l l l l ( ( ( .                             ",
"                            . I ( &.&.&.3.B.B.B.m.B.u...2.>.&.>.&.;.;.( ( ( ( ( ( V l l l l ( ( ( .                             ",
"                            . I ( &.&.<.2.B.B.B.B.S.q.&.<.>.>.>.>.+.<.( ( ( ( ( ( V B l l l W ( ( .                             ",
"                            . I W &.&...2.B.B.B.B.n.q.&.+.2.;.&.;.2.>.( ( ( ( ( ( V l l l c ( ( ( .                             ",
"                            . I ( <.&.&.2.B.B.B.B.n.8.<.&.&.;.<.>.&.<.( ( ( ( ( ( C l l l l ( ( ( .                             ",
"                            . I W <.&.&.2.B.B.B.B.B.8...>.>.2.>.2.2.>.( ( ( ( ( ( C c c l l ( ( ( .                             ",
"                            . I ( &.&.&.2.B.B.B.B.n.u.>.2.2.;.>.;.<.2.I ( ( ( ( ( V l l l l ( ( ( .                             ",
"                            . I ( &.&.&.2.B.B.B.B.B.u.&.&.>.+.<.>.&.>.( ( ( ( ( ( V c l l l ( ( ( .                             ",
"                            . I W &.&.&.2.B.B.B.B.n.u.<.+.2.>.&.>.+.<.( ( ( ( ( ( V l l l l ( ( ( .                             ",
"                            . . | >.>.&.2.B.B.B.B.B.8...<.;.>.<.;.2.>.( ( ( ( ( ( V l l l l B C . .                             ",
"                            . - . . . &.2.S.C.S.C.n.u.&.>.>.2.;.&.2.>.( ( ( ( ( ( V c c B . . . - .                             ",
"                            . < 4 w q . . . . . n.n.u.&.&.<.>.&.>.>.<.I ( ( ( Z . . . . . O 9 1 4 .                             ",
"                            . 1 9 t t e y ).)., . . . . . . . . . . . . . . . . X @ O % @ @ 9 9 4 .                             ",
"                            . 1 9 y e y u ).).^.^.^.u t e e e e w y w 7 7 7 7 7 9 * @ & @ @ 9 9 4 .                             ",
"                            . 1 9 e y e u ).).).).^.p y y e y e y t t 9 9 9 9 9 9 * % % @ @ 9 9 4 .                             ",
"                            . 1 9 y e y u ).).).).^.p y e y e y t t e 9 9 9 9 9 9 * % % @ @ 9 9 4 .                             ",
"                            . 1 9 y y e y ).).).)./.p e y e y e t t r 9 9 9 9 9 9 * % % @ @ 9 9 4 .                             ",
"                            . 1 9 e e y y ).).).)./.p y e y e y t y r 9 9 9 9 9 9 * % % @ @ 9 9 4 .                             ",
"                            . 1 9 e y e y ).).).)./.a r y e y e t t e 9 9 9 9 9 9 * % % @ @ 9 9 4 .                             ",
"                            . 1 9 y e y y ).).).)./.a r e y e y t t y 9 9 9 9 9 9 * % @ @ @ 7 7 4 .                             ",
"                            . < 7 t t t y ).).).).).p r t t t t t t r 9 9 9 9 9 9 * & % @ @ 9 9 4 .                             ",
"                            . < 9 t t t y ).).).).!.p y t t t t t t r 9 9 9 9 9 9 * & % @ @ 9 9 4 .                             ",
"                            . 4 9 y y t u ).).).)./.p u t t t t t t e 9 9 9 9 9 9 * % % @ @ 9 9 4 .                             ",
"                            . < 9 w y y u ).).).)./.u t t t t t t t r 9 9 9 9 9 9 & % % @ @ 9 9 4 .                             ",
"                            . < 9 t t t y ).).).)./.a r t t t t y e r 9 9 9 9 9 9 * & % @ @ 9 9 4 .                             ",
"                            . 4 9 y t t y ).).).)./.p r t t t t e y r 9 9 9 9 9 9 * @ & @ @ 9 9 4 .                             ",
"                            . < 7 t t t y ).).).).).p y t t t t y e r 9 9 9 9 9 9 * % % @ @ 9 9 4 .                             ",
"                            . < 9 t t t y ).).).).!.p r t t t t e y r 9 9 9 9 9 9 & % @ @ @ 9 9 4 .                             ",
"                            . 4 9 y t t y ^.).).)./.a r y t t t y e r 9 9 9 9 9 9 * @ % @ @ 9 9 4 .                             ",
"                            . < 9 w t t y ^.).).)./.a r t t t t e y r 9 9 9 9 9 9 * % % @ @ 9 9 4 .                             ",
"                            . < 9 t t t y ).).).).).u t t t t t y e r 9 9 9 9 9 9 * % % @ @ 9 9 4 .                             ",
"                            . 4 9 y t t u ).).).).).p y t t t t e y r 9 9 9 9 9 9 * % % @ @ 9 9 4 .                             ",
"                            . . 7 y t t u ).).).)./.a r t t t t y e r 9 9 9 9 9 9 * % % @ @ 9 9 . .                             ",
"                            . g . . . t u ).).).)./.a r t t t t e y r 9 9 9 9 9 : & @ @ @ . . . h .                             ",
"                            . U v ` _ . . . . . ^./.p y t t y t y r r 9 9 9 9 : . . . . . j b b { .                             ",
"                            . { ( &.&.4.4.l.l.K . . . . . . . . . . . . . . . . o F F F D B ( ( { .                             ",
"                            . { ( &.&.&.2.B.B.C.n.n.6.;.;.;.;.;.;.;.>.U ( U ( ' W N c l c l ( ( { .                             ",
"                            . ' ( &.&.&.2.B.B.B.m.C.8.;.>.&.;.&.;.>.&.( ( ( ( ( ( C l l c l ( ( { .                             ",
"                            . { ( &.&.&.2.B.B.B.m.B.u.;.+.<.<.>.;.&.&.( ( ( ( ( ( C l c c l ( ( { .                             ",
"                            . ' ( &.&.&.2.B.B.B.C.m.8.,.>.&.>.&.&.&.<.( ( ( ( ( ( C l l c c ( ( { .                             ",
"                            . { I <.&.&.2.B.B.B.B.n.u.&.&.&.<.>.&.+.<. .( ( ( ( ( V l l c l ( ( { .                             ",
"                            . ' ( &.&.&.2.B.B.B.B.B.e.&.&.&.>.&.&.>.&.W ( ( ( ( ( V l l c l ( ( { .                             ",
"                            . { ( &.&.<.2.B.B.B.B.B.8.&.>.&.>.>.&.>.&.W ( ( ( ( ( V c l l l ( ( { .                             ",
"                            . ' ( &.&.<.2.B.B.B.B.n.e.&.&.>.+.<.>.&.<.I ( ( ( ( ( V c l l B ( ( { .                             ",
"                            . { ( &.&.&.2.C.B.B.B.S.u.&.>.<.>.&.<.>.&. .W ( ( ( ( V l l c l ( ( { .                             ",
"                            . ' ( &.&.&.2.S.B.B.B.S.u.&.&.>.&.&.>.&.&.( I ( ( ( ( V l l c c I W { .                             ",
"                              . ( &.&.&.2.S.S.B.B.B.u.<.>.<.&.&.<.>.<.( ( ( ( ( ( C l l l l  .| .                               ",
"                                . . . &.2.C.S.S.B.n.u.<.+.>.&.<.>.&.>.( ( ( ( ( ( C k k c . . .                                 ",
"                                      . . . . . B.B.u.;.;.+.+.+.&...&.W o.W W W . . . . .                                       ",
"                                                . . . . . . . . . . . . . . . .                                                 ",
"                                                                                                                                ",
"                                                                                                                                "
};
