/* XPM */
static char *result[] = {
/* columns rows colors chars-per-pixel */
"64 64 228 2 ",
"   c none",
".  c #1C160B",
"X  c gray12",
"o  c #1D1712",
"O  c #26190D",
"+  c #241D13",
"@  c #2B1D14",
"#  c #251F1A",
"$  c #2B1E1A",
"%  c #221710",
"&  c #321F18",
"*  c #262013",
"=  c #2B2315",
"-  c #2B211B",
";  c #2D2C1D",
":  c #202719",
">  c #322015",
",  c #31251C",
"<  c #3B251D",
"1  c #332C1E",
"2  c #3C2B1C",
"3  c #382815",
"4  c #2D2520",
"5  c #2D2B24",
"6  c #2E2E2A",
"7  c #252621",
"8  c #342421",
"9  c #342C23",
"0  c #3B2C24",
"q  c #312F2C",
"w  c #3C2A29",
"e  c #2B3327",
"r  c #343324",
"t  c #393326",
"y  c #3B3A23",
"u  c #34342C",
"i  c #3C342B",
"p  c #3C3A2D",
"a  c #373825",
"s  c #363532",
"d  c #383633",
"f  c #3C3B32",
"g  c #3B3B3B",
"h  c #373831",
"j  c #442A1F",
"k  c #44311C",
"l  c #432D24",
"z  c #432E2A",
"x  c #44352C",
"c  c #42392C",
"v  c #4D3A2C",
"b  c #4A3526",
"n  c #523C2C",
"m  c #53372D",
"M  c #433531",
"N  c #443C32",
"B  c #4B3C33",
"V  c #4C3C39",
"C  c #483836",
"Z  c #553C33",
"A  c #48402C",
"S  c #58442E",
"D  c #58442A",
"F  c #434233",
"G  c #494336",
"H  c #45443B",
"J  c #4E453C",
"K  c #4B4B3D",
"L  c #474838",
"P  c #554234",
"I  c #5B4635",
"U  c #54453C",
"Y  c #5B443B",
"T  c #524A3D",
"R  c #5C4B3D",
"E  c #524B35",
"W  c #65472D",
"Q  c #644C36",
"!  c #644B3C",
"~  c #6B4B3C",
"^  c #684639",
"/  c #69553D",
"(  c #745939",
")  c gray28",
"_  c #4C4B43",
"`  c #4D4D4D",
"'  c #4C4646",
"]  c #534541",
"[  c #554C43",
"{  c #5B4D44",
"}  c #594B49",
"|  c #4A5145",
" . c #545244",
".. c #5B5446",
"X. c #5A5A46",
"o. c #55544B",
"O. c #5B554B",
"+. c #5B5A4C",
"@. c #575843",
"#. c #555555",
"$. c #585750",
"%. c #5C5C52",
"&. c #5F5F5F",
"*. c #634D42",
"=. c #6B4C44",
"-. c #604B4D",
";. c #625244",
":. c #6A5343",
">. c #64544B",
",. c #625B4D",
"<. c #6C5B4C",
"1. c #695849",
"2. c #715345",
"3. c #725D4D",
"4. c #7C5F4B",
"5. c #625D52",
"6. c #685A55",
"7. c #755E53",
"8. c #7A5C54",
"9. c #5D604D",
"0. c #62614F",
"q. c #6F6048",
"w. c #77634A",
"e. c #656354",
"r. c #696456",
"t. c #6B6956",
"y. c #666459",
"u. c #6B655A",
"i. c #6C6B5C",
"p. c #676855",
"a. c #7D6955",
"s. c #7B6659",
"d. c #726C5E",
"f. c #7C6A5B",
"g. c #766456",
"h. c #71725E",
"j. c #676767",
"k. c #6E6D61",
"l. c #6B6B6B",
"z. c #726E62",
"x. c #7A6B66",
"c. c #6F7163",
"v. c #747264",
"b. c #797566",
"n. c #76756A",
"m. c #797669",
"M. c #7B7A6B",
"N. c #777968",
"B. c gray45",
"V. c #7B7B7B",
"C. c #7D7B72",
"Z. c #88684E",
"A. c #906E4E",
"S. c #846D53",
"D. c #836B5A",
"F. c #8B6E5D",
"G. c #896657",
"H. c #936D54",
"J. c #82775B",
"K. c #856D61",
"L. c #8A6E61",
"P. c #8B7464",
"I. c #83756B",
"U. c #817D6E",
"Y. c #877767",
"T. c #947A67",
"R. c #817D71",
"E. c #7F806E",
"W. c #80846E",
"Q. c #94876D",
"!. c #838273",
"~. c #8B8374",
"^. c #8A867A",
"/. c #8E8B7C",
"(. c #85887B",
"). c #9A8B7A",
"_. c #A68E7B",
"`. c #838383",
"'. c gray56",
"]. c #8D8C85",
"[. c #968C87",
"{. c #929284",
"}. c #95958B",
"|. c #99988A",
" X c #9B9B9B",
".X c #A59A8D",
"XX c #AC9E99",
"oX c #A5A49B",
"OX c #ACA39D",
"+X c #A9A99A",
"@X c #B7A69B",
"#X c gray67",
"$X c #ADACA4",
"%X c #BCADA4",
"&X c #B3B2A4",
"*X c #B6B6A8",
"=X c #BCBBAC",
"-X c #B9B9A8",
";X c #B7B7B7",
":X c #BDBCB1",
">X c #BDB7B0",
",X c #C1BCAD",
"<X c #C3BFB3",
"1X c #BFC0AA",
"2X c #C2C3AD",
"3X c #C3C3B4",
"4X c #C6C5B9",
"5X c #C9C5BA",
"6X c #CBCBBC",
"7X c #CBCBB5",
"8X c #CED1B9",
"9X c #D1D2BB",
"0X c gray78",
"qX c #CECDC2",
"wX c #D0CEC4",
"eX c #D3D3C4",
"rX c #D5D5CA",
"tX c #DCD9CB",
"yX c #D9D7C6",
"uX c LightGray",
"iX c #DFDFDF",
"pX c #DCDCD1",
"aX c #E2DFD5",
"sX c #E6E5D7",
"dX c #EEF1D9",
"fX c #EFEFEF",
"gX c #EFEFE1",
"hX c #F6F6E8",
/* pixels */
"X g X g 7 g X g X g X g X g X g X g X g X g X g X g X g X g X g X g X g X g X g X g X g X g X g X g X g X g X g X g X g X g X g ",
"#.#.#.` #.` #.` #.` ` uXiXiXiXuXaXuXiXiXiXuXiXuXiXiXiXX %.v.5.k.o.+.(.(.0XuX;X0X#X`.#.X ) ) ) ) ) ) ) ) ) ) #.` #.` #.` &.` #.` ",
"#.#.#.#.#.#.#.#.&.#.) iXuX0XuX;XuXuXuX0XuXuX;XuXuXo.H n.eXsXgXhX3X=X1X1Xc.E.}.E.#X` g X g l.'.'.`.'.'.'.V.l.j.) ) ) ` ) ) ) ` ) ",
"'.'.`.'.'.'.`.'.X #.) iX0X0X;XuX;X0X0X;X0X0Xf _ i.&.qXrXM.v.{.(.y.c.5.y.qXrXqXB.u f g 7 g '.uXiXiXiXuXiX;X;X#X'.`.'.'.'.`.'.'.'.",
"uXuXuXuX;X#X'.`.X #.) iXuX#X#X X#X'.#X#Xz.5.}.i z.3Xk.v.b.M.m.U.y.v.i.c.y.E.%.1Xf sXsXuXu `.iXiX;X0X;XuXiXiXiXuXiXuX0XuXuXuX0XuX",
"#X#X#X#X X#XV.B.X ` ) fX;X X#X#X#X#XJ  .!.sXdXU.r v.!.R.M.m.n.R.i.c.c.y.y.i.n.h *XtXE.}.tXqXr ;X#X'.#X'.#X#X X'.'.#X'.#X`.#X'. X",
";X X X X#X'.V.l.X ` ) fXuX#X`.#X' #.m.8XtXM.v.=Xr b.W.U.m.b.e.!.k.M.i.c.p.$.y.e 6X^.k.v.k.v.6XK '.#X`. X`.'.'.#X`.'. X'.#X X'. X",
";X#X`.;X`. X&.#.X g ) fX0X'. Xs l.wXyXM.W.h.~.i.3Xr d.v.n.M.M.m.R.+.c.y.5.9.u 1X*Xv.C.M.z.!.i.=Xr `. XV.#X XV.'.#X`.#X#X'.V.#X X",
" X#X#X'. XB.) ) X X ` 0X;X+.o.k.u eXU.m.v.i.m.b.tXt i O.z.u.b.y.n.r.y.O.,.t = ,X5.m.x.~.d.d.v.; p.M.`.`. XB. X'.#X'.'.V.#X#XB.'.",
"'.'.`.'.B.#.) ) X g ) #X+.(.wX5Xr U.U.!.b.r.U.m.d.2X9  .i.r p 9 N u 1 u.6.r r.5Xr.~.u.m.b.b.U.; e.yXh.'. X X X`.'.#X'.#X#X`.#X'.",
"B.l.B.B.` ` g g X X ` K v.eXtXz.C.f k.R.v.z.d.r.u.=Xt c N .         R t u u 6.<Xm.T.r.d.m.z.N x.9X^.rXK '.`.'.B.l.j.&.&.j.&.j.&.",
"#.#.) ) ) X X X X g ' y.6Xn.m.m.i.9 5.M.v.z.5.e.c ; 5.K i + 9 N  .e.B x o 5 s p b.g.z.u.m.+.; rXi.v.!.eXK #.` #.#.) ` ) ) ) ) ` ",
"X X X X X g X g X u k.<X!.n.m.z.z.b.i z.i.v.c i N T [ u.9 J T J U _ z.5 G { R  .N d i.,.m.N yXk.v.b.b.b.6XH g g g g g X g X g X ",
"X g X g X X g X _ o.4Xk.z.m.z.i.z.m.p 5.9 i c p u x c p - i f c N N u # c b v 1 u u p c 5./.5Xi.v.!.^.h.v.eXK X X X X X X X X X ",
"g g g g g g g g F $X6XM.M.z.m.x.u.5.m.p + c % * @ = + - f $ + + + # = i O + . - @ + i * r d.I.u.b.y.b.v.j.N.1Xf g g g g g g g g ",
"#.` g g g g g u f y.5.y.u.v.z.v.z.5.i   T F +         $.V $         { t *         ..x ,   u u.u.b.d.d.b.e.k.qXu ) ` ) ) ) ) ) g ",
" X X'. X'. X' eXu u ..y.i.5.v.x.6.u     >.c ,         } C -         >.x ;         >.v O     w u.,.d.d.5.+. .p f o. X X'. X X X X",
"uX0XuXuX0XuXH <X5Xm.1 p n.o.5.u.u       R v 1         6.C ,         Y B ,         *.b &       x z.1.d...t /.eXyXK uXiXiXiXuXiXuX",
"#X X'.#X'.#X[ 5Xu.eXm.M.f } O.i         1.B @         1.Z @         q.E =         <.n =         x >.,.p tXeXz.u.yXo.;X;X#X;X;X;X",
"#X'. X'.#Xo.qXC.m.u.6XaXz.i N - c T 1.J.,.A @ A ! a.P.<.Z 2 Z ;.f.Y.q.E 3 A / q.Y.,.U 9 B U 1.m.J t c eX!.M.!.v.6XN #X'. X`. X X",
"#X'.'.#X`.o.:Xv.d.i.z.R.<Xt t U ..;.( q.(.| 9.q.w.<.f.).P g.g.8.g.7..XE w.( ( ( t.|._ u.7.:.:.! M.g r v.U.d.W.v.4X%.'. XB.`.'.`.",
"#X'.#X}.#XrXC.n.!.u.U.b.x.i % u V x b n K : E Q P U T U 1 U Y Z Y Y [ = D I D E X.T 7 ] v n m b N o i d.b.!.!.d.!.tX` '. X`. X X",
"'.#XB.V.$.aX{.R.b.v.I.^.C * x - @ 9 # 9 2 I 3 1 8 , & 8 V < w w w 0 & I < - 0 1 & 3 Z & 0 - 0 8 @ x = t d.U.d.r.N.rX#. XV.V.'.'.",
"'.`.`.V.` 3XR.M.t.u.u.m.i ' i +         s.^ <         x.} w         D.*.4         G.Z &         =.v O 9 5.v.+.e.i.v.eX` V.V.'.'.",
"'.'.#X#Xu n.v.v.u...z.e.N U N $         8.=.&         I.} 8         s.! 8         G.=.j         7.m O t r.d. .e.i.c.1Xh #X'.#X'.",
" X#X`.'.qX; r a ..K r.t   _ C ,         K.=.z         D.*.l         T.! w         F.=.b         =.m >   1 ..L @.p f E.L l.V.'.`.",
"j.&.j.].M.eX=X1 t i N 9   } N &         F.^ b         P.I b         F.2.0         F.^ <         7.Z $   ; r a h.dX8X9Xi.u #.#.#.",
"#.) ) 4Xk.h.v.7X,Xr.9 x 7.O.M $ T ..a.Q.s.*.l :.a.Q._.L.Q b ~ w.T._.S.<.k / s.T.).T.{ w { ,.z.U.s.V $ H - N 3X6XE.E.E.h.@.g g ) ",
"X X X 6Xn.N.W./.M.3X9 J } I.V } 7.6.4.S.+X[ L.S.a.f.I.%X>.P.F.H.H.H.@X..S.A.A.Z.I.>X5.z.K.3.S.f.[.' } ,.X.r &Xv.B.i.!.c.| X X X ",
") j.j.5Xi.k.M.M.i...t w C V $ V V U I P >., Q ^ R ,...6.$ <.~ ~ ~ ~ >.0 Q ( W ( 6.O.# } ! R n B ' # c c A r =Xj.n.c.M.v. .g g g ",
"j.'.;XeXi.i.M./.d.u.t % $ 8 M @ 8 9 4 , l ^ j z c i l > Y 0 i i x t w -.b < j j 0 < { < 9 4 $ 8 > U 3 = * p 6Xi.c.E.c.v.+.) ) ` ",
"j.#XuXsXv.v.!.i.z.x.u     } z $         G.^ <         F.>.0         x.=.w         D.:.<         <.v =     f 1X9.9.E.h.i.+.'.g #.",
"j.iX1XyX9.p.,.O.v.k.u     ] C -         Z.W l         F.~ l         L.2.z         f.:.2         7.n -     u 6XM.e.i.h.e.f `.g ` ",
"j.uX;X1XR K c.+.5.| e     ] C -         4.W l         a.;.0         F.~ 0         K.I 2         <.P -     s 4Xh.i.E.| +.K &.g ) ",
"j.iX$X1X9.K M.[ y.F u     ] V $         a.n 0         f.R z         L.! 8         d.*.0         3.x -     s +Xe.+.n.K +.K &.g ) ",
"j.iX$Xy y F p r u s u     x.C -         .Xs.u         @Xx.c         @XK.i         OXx.x         ^.6.7     u r p r r a p e #.g ) ",
"j.uX;X8X7XyX2X9X6Xi.u       B.            OX            XX            XX            OX            [.      s 3X9XrX3X6XqX_ #.g g ",
"j.iX;X8Xi.W.M./.i.#.s                                                                                     s 6XM.!.i.n.!.%.#.g g ",
"j.iX#X8Xh.9.k.i.i.v.u                                                                                     d :X0.0.n.E.l.o.X X g ",
"j.uX;X7Xh.i.b.M.y.5.u                                                                                     d rXv.v.n.M.E.o.g g g ",
"j.iX;X8X9.h.h.9.+.k.u                                                                                     q 6Xh.N.y.c.i._ B.g ` ",
"j.iX#XyXp.9.T 9.N.E.u                                                                                     q eXM.y.p.y.5._ V.g ` ",
"j.0X;X1X9.K t.0.n.h.u                                                                                     s =Xp.+.M.| y.$.l.X ` ",
"j.uX;X1XE K p.t.N.K u                                                                                     6 |.X.9.e.K %.o.#.X ` ",
"j.;X;Xa a e a ; y r u                                                                                     g u ; r ; e f h #.g g ",
"` 0X`.1X1X8X7X9X3X9.s                                                                                     d 4XeX6X6XwX5X| #.X g ",
") ;X#X7Xh.M.W.~.N.o.u                                                                                     d 1XX.v.v.B.v.` #.g g ",
") V.V.8Xh.!.h.N.M.%.u                                                                                     s 6Xi.i.e.n.M.H #.X g ",
") g X 3Xv.v.N.N.h.i.q                                                                                     s 6XM.v.(.l.M.` #.X g ",
"#.#.#.yXe.~.t.p.X.y.u                                                                                     u 3Xh.i.M.v.y.F #.X g ",
") ` ) 1Xi.W.p.+.E.y.u                                                                                     s -XN.y.y.k.%.H #.X g ",
") V.#X1X@.@.b.p.p.X.e                                                                                     u 7Xi.9.c.K y.#.#.X g ",
") #X0X3X+.K X.T k.F 6                                                                                     q +Xi.o.v._ o.H X g g ",
") #XuXa f r ; a r r 6                                                                                     s r ; r u u q g X g g ",
") #XiX*X1X=X6X3X4Xc.s                                                                                     f :X-X&X*X:X&Xf g ) ` ",
") #XiX&Xy.+.p.i.p.y.d                                                                                     f *X+.%.O.#.c.u ) ) #.",
") #X0X+XX. .X.y.e.y.h                                                                                     s :X$.$.%.| y.u #.#.#.",
") $X0XoX . .K  .+.o.h                                                                                     6 oXo.$.o.%._ q ` ) #.",
") #X`.|.L K G K K K h                                                                                     u oXo.%.$.$.f q  XX ` ",
") '.j./.F K L L K K u                                                                                     d $X' _ _ _ ) 6 #.7 #.",
") g X {.p p H a F F 5                                                                                     u }.g s H g g 5 ` X #.",
"#.` g {.a ; p u h h 6                                                                                     6 ].H 5 d u s 7 #.7 #.",
"#.#.` p a h r h r u s                                                                                     u q q s d 6 s 5 X X #.",
"g g g h u u u F a u f                                                                                     s d 6 s s 6 s 6 g g g "
};
