/* XPM */
static char *result[] = {
/* columns rows colors chars-per-pixel */
"64 64 251 2 ",
"   c none",
".  c gray12",
"X  c #181C11",
"o  c #19150C",
"O  c #28150E",
"+  c #24160E",
"@  c #2B1613",
"#  c #241C13",
"$  c #2C1B14",
"%  c #2C1D1A",
"&  c #251816",
"*  c #331E15",
"=  c #301E19",
"-  c #381F13",
";  c #2E180C",
":  c #2D2215",
">  c #2C231B",
",  c #2D2A1D",
"<  c #262218",
"1  c #332316",
"2  c #3D2315",
"3  c #34231B",
"4  c #3A251B",
"5  c #35291C",
"6  c #3B2B1D",
"7  c #372C14",
"8  c #38301E",
"9  c #34220F",
"0  c #2E2D23",
"q  c #2C2C27",
"w  c #342522",
"e  c #3A2522",
"r  c #342C22",
"t  c #3C2C23",
"y  c #322E29",
"u  c #3A282A",
"i  c #343225",
"p  c #3C3324",
"a  c #35342B",
"s  c #3B342B",
"d  c #3C3A2C",
"f  c #373632",
"g  c #3C3B33",
"h  c #3B3B3B",
"j  c #3A3731",
"k  c #392C2E",
"l  c #412416",
"z  c #42231C",
"x  c #442B1D",
"c  c #472B19",
"v  c #46321F",
"b  c #422D24",
"n  c #432E2A",
"m  c #492A24",
"M  c #433224",
"N  c #43332C",
"B  c #4A332E",
"V  c #433A2D",
"C  c #4B3C2D",
"Z  c #493425",
"A  c #56392B",
"S  c #422F35",
"D  c #4B3531",
"F  c #433B32",
"G  c #4A3C33",
"H  c #463536",
"J  c #523C35",
"K  c #523E39",
"L  c #5C3F3B",
"P  c #653F36",
"I  c #3F4030",
"U  c #5B432C",
"Y  c #434236",
"T  c #44443B",
"R  c #4C433B",
"E  c #4B4B3C",
"W  c #4B4538",
"Q  c #5A4232",
"!  c #53443C",
"~  c #5C443A",
"^  c #544A3D",
"/  c #5B4B3D",
"(  c #574934",
")  c #5B533C",
"_  c #4E412E",
"`  c #654B33",
"'  c #634C3D",
"]  c #6C4D3C",
"[  c #654736",
"{  c #714D3B",
"}  c #744735",
"|  c #655235",
" . c #65513C",
".. c #6B563C",
"X. c #74573D",
"o. c #70482D",
"O. c #474747",
"+. c #4D4C42",
"@. c #4D4D4D",
"#. c #494843",
"$. c #5B4541",
"%. c #544D43",
"&. c #5C4B43",
"*. c #594F4B",
"=. c #554443",
"-. c #535245",
";. c #5A5346",
":. c #55554B",
">. c #5C544A",
",. c #5B5B4C",
"<. c #585B49",
"1. c #555555",
"2. c #5A5651",
"3. c #5D5C52",
"4. c #5F5F5F",
"5. c #544F4B",
"6. c #634C44",
"7. c #644E4B",
"8. c #6C4A42",
"9. c #724D43",
"0. c #655344",
"q. c #6A5444",
"w. c #64544B",
"e. c #6B544A",
"r. c #635B4D",
"t. c #6B5B4B",
"y. c #695A44",
"u. c #745443",
"i. c #735B44",
"p. c #735A4B",
"a. c #795A4A",
"s. c #655352",
"d. c #635D53",
"f. c #6C5C54",
"g. c #6C5B59",
"h. c #735B53",
"j. c #755B55",
"k. c #634B53",
"l. c #5F6251",
"z. c #77644C",
"x. c #646355",
"c. c #6B6355",
"v. c #666559",
"b. c #6A655A",
"n. c #6C6B5C",
"m. c #676857",
"M. c #7C6554",
"N. c #7C655B",
"B. c #726C5E",
"V. c #7C6B5C",
"C. c #746358",
"Z. c #7C735C",
"A. c #72705E",
"S. c #6F725E",
"D. c #676767",
"F. c #6E6D61",
"G. c #6B6B6B",
"H. c #736D62",
"J. c #7B6963",
"K. c #6E7064",
"L. c #747364",
"P. c #797566",
"I. c #777867",
"U. c #767669",
"Y. c #7A766A",
"T. c #7B7A6B",
"R. c #77796C",
"E. c #797977",
"W. c #84664C",
"Q. c #856C53",
"!. c #846B5A",
"~. c #8A6D5B",
"^. c #846554",
"/. c #926D5C",
"(. c #8C735C",
"). c #8D795C",
"_. c #867558",
"`. c #927B5C",
"'. c #94745B",
"]. c #86734E",
"[. c #846D65",
"{. c #847363",
"}. c #8B7463",
"|. c #8C7A63",
" X c #85756B",
".X c #827C6D",
"XX c #8D786B",
"oX c #947563",
"OX c #947C64",
"+X c #977A68",
"@X c #827E71",
"#X c #897874",
"$X c #937C77",
"%X c #966F61",
"&X c #805851",
"*X c #7F8070",
"=X c #7F816E",
"-X c #968268",
";X c #838273",
":X c #8B8A7B",
">X c #888578",
",X c #988979",
"<X c #988B73",
"1X c #A4907C",
"2X c #99825E",
"3X c #8F7681",
"4X c #838383",
"5X c #8F8F8F",
"6X c #8D8D84",
"7X c #968A84",
"8X c #959487",
"9X c #9B9B9B",
"0X c #9C9A93",
"qX c #A89988",
"wX c #B29885",
"eX c #A09A91",
"rX c #B6A388",
"tX c #AAA49B",
"yX c #B1AA93",
"uX c #ABABAB",
"iX c #AEABA0",
"pX c #B8AEA6",
"aX c #BCBDAC",
"sX c #B9B5A8",
"dX c #B7B7B7",
"fX c #BEBEB2",
"gX c #ADB0A1",
"hX c #C2B99F",
"jX c #C4B7A8",
"kX c #C2BDB4",
"lX c #C09F8C",
"zX c #BFC1B0",
"xX c #C4C2B5",
"cX c #C5C4B9",
"vX c #C9C6BB",
"bX c #CBCABD",
"nX c #C7C8B8",
"mX c #D0CEBD",
"MX c gray78",
"NX c #CECCC2",
"BX c #D1CEC3",
"VX c #D3D2C4",
"CX c #D5D3C9",
"ZX c #DAD9CB",
"AX c #D8D6C8",
"SX c #DFDFDF",
"DX c #D4D4D3",
"FX c #E5E4D7",
"GX c #EFEFEC",
"HX c #F5F6E6",
"JX c #E0DFD6",
/* pixels */
". h . h . h . h . h . h . h . h . h . h . h . h . h . h . h . h . h . h . h . h . h . I . h . h . h . h . h . h . h . h . h . h ",
"1.1.1.@.1.@.1.1.1.@.@.DXSXSXSXDXSXDXSXSXSXDXSXDXSXSXSX. l.L.x.L.,.<.;X;XMXCXdXMXuX4X1.. O.O.O.O.O.O.O.O.O.O.1.@.1.@.1.@.1.@.1.1.",
"1.1.1.1.1.1.1.1.1.1.O.SXDXMXDXdXDXDXDXMXDXDXdXDXDX:.T U.BXFXHXHXnXaXzXnXF.I.:X*XuX@.I . h G.5X5X4X5X5X5XE.G.D.O.@.O.@.O.O.O.@.O.",
"5X5X4X5X5X5X4X5X. 1.@.SXMXMXdXDXdXMXMXdXMXMXf O.D.x.bXNXI.L.8X:Xn.S.l.x.CXZXZXU.i h h . h 5XDXSXSXSXDXSXdXdXuX5X4X5X5X5X4X5X5X5X",
"DXDXDXDXdXuX5X4X. 1.O.SXDXuXuX9XuX5XuXuXU.n.6Xg T.cXn.L.L.R.T.=Xx.L.n.F.v.T.l.fXI JXFXZXa 4XSXFXdXMXdXDXSXSXSXDXSXDXMXDXDXDXMXDX",
"uXuXuXuX9XuXE.E.. 1.O.GXdX9XuXuXuXuX-.:.;XZXGXI.y n.=X=XI.I.I.=Xn.F.U.b.v.S.L.d sXAX;X8XZXBXy dXuX5XuX5XuXuX9X5X5XuX5XuX4XuX5X9X",
"dX9X9X9XuX5XE.G.. @.O.GXDXuX4XuX#.:.T.ZXBX>XT.kX< :X=XT.R.I.x.;XL.T.B.H.n.,.l.0 nX;Xn.L.A.I.mXE 5XuX4X9X4X5X5XuX4X5X9X5XuX9X5X9X",
"dXuX4XdX4X9X4.1.. h O.GXMX5X9Xy G.BXSXK.*XI.;Xn.nXi S.L.I.I.T.I.;X,.H.b.d.,.i xXsXA.=X;XA.;Xm.zXq 4X9X4XuX9XE.5XuX4XuXuX5XE.uX9X",
"9XuXuX5X9XE.O.O.. . @.MXdX-.:.F.i bX*XU.T.v.I.U.CXr r c.n.m.I.d.B.b.c.&.r.5 < fXv.F.U.>XA.Z.I.8 m.T.4X4X9XG.9X5XuX5X5XE.uXuXE.5X",
"5X5X4X5XG.1.O.O.. h O.uX<.:XZXBXd I.R.R.I.v.@XI.L.xX, %.H.5 F > G r 5 f.d.d d.vXn.;Xn.I..XP.T., A.mXl.5X9X9X9X4X5XuX5XuXuX4XuX5X",
"G.G.E.E.@.@.h h . . @.T n.bXZXF.Y.g U.*XT.I.F.D.x.cXs G V 5 p n 3 b t W 5 w d.kXT.>Xb.H.Y.A.V L.VX;XCX-.5X4X5XE.G.D.4.4.D.4.D.4.",
"1.1.O.O.O.. . . . h O.n.nXI.T.I.n.0 l.L.v.D.d.,.s , t b t b D b t n b N N r a g T.v.L.n.P.r.d mXm.A.*XNX#.1.1.1.1.O.@.O.O.O.O.@.",
". . . . . h . h q a n.xX>XL.;XL.H.T.s F.v.L.a i X o $ $ M $ O O @ O @ N + & o < f a v.d.I.d VXB..XI.P.P.bXT h h h h h . h . h . ",
". h . h . . h . T :.vXn.S.T.H.L.P.P.a ,.a Y X         &.M O         K N &         +.i V t.:XkXB.A..X:XA.H.CXE & . . . . . . . . ",
"h h h h h h h h h iXBXY.Y.H.Y.Y.H.d.T.g -.T #         %.V $         %.N w         :.g < d L.Z.L.H.d.P.L.n.L.zXf h h h h h h h h ",
"1.@.h h h h h a g v.d.n.b.L.Y.H.n.x.d   >.F #         f.C #         0.G >         >.F >   V n.c..XH.B.L.d.D.MXf O.@.O.O.O.O.O.h ",
"9X9X5X9X5X9XO.BXa i d.m.n.,.Y.H.b.0     ' A @         h.B 5         q.C .         0.$.3     5 B.g.g.b.c.r.>.d a -.9X9X5X9X9X9X9X",
"DXMXDXDXMXDXT kXvXP.r d H.-.,.P.F R x. X0.J w G w.c.[.h.G 1 G &.C..Xe.G w H *.g.{.t.K @ W ( r.N J.C.m.r.r ,XVXAX-.DXSXFXSXDXSXDX",
"uX9X5XuX5XuX@.vXx.BX;XY.s E >.r %.%.e.e.4XI r.z.C.g.x.,XW c.N.N.j.h.6XR s.e.j.t.d.#Xg d.h.e.q./ V x.r.V ZXZXn.m.VX:.dXdXuXdXdXdX",
"uX5X9X5XuX5.NX@XP.m.mXFXL.r d d F G A B O.X ( ( $.=.Y Y : ! ~ ~ P L K % J [ ~ ~ R I # ^ J J L ! Y i p VX:X.X:XB.nXY uX5X9X4X9X9X",
"uX5X5XuX4X1.aXH.H.n.x.Y.BXs y < # # $ 5 < ^ 1 : t 3 5 3 ^ t 1 3 - 3 N ! t u u 3 > 3 ! 4 > r , : O M p A.;XB.;XL.nX2.5X9XE.4X5X4X",
"uX5XuX5XuXCX@XL.;Xn.L.#XJ.r N #         c./ :         N.&.4         V./ w         N.[ 1         e.A Z x.L..X#XB.#XJX#.5X9X4X9X9X",
"5XuXE.E.:.SX8X@XP.B.#X@XF *.N #         V.~ t         N.6.x         V./ k         M.' -         8.A : p C..XB.m.I.AX1.9XE.E.5X5X",
"5X4X4XE.-.cX@XY.n.m.x.Y.r &.N #         ~.8.3         [.' 6         {./ w         ~.8.-         h.A : p c.B.r.x.n.I.DX@.E.E.5X5X",
"5X5XuXuXa U.L.I.m.;.A.%.S &.G >         W.P m         `.q.9         }.8.5         }.[ -         p.~ 1 V d.B.>.>.x.L.zXI uX5XuX5X",
"9XuX4X5XNX0 i i <.T n.d U.7.K % %.>.Z.qX^.9.m p.z.<XwX(. .: y.V.,XqX<Xp.t w. X,XwX}.7.b q.t.|.,XM.! 3 d s %.R +.I I =XE G.E.5X4X",
"D.4.D.6XT.VXaX0 p d d d !  XD f.S.z.].z.yX>.oX`.2X_.Z.sX) -X-X+X'.}.jX&.+XoX+X}.#XpXs. X|.].Q.^.7X=.F.s.> V d n.FXVXAXS.d 1.1.1.",
"1.@.O.cXS.S.L.nXaXd.d 5 N B % K ^ ) U | ;.< ..{ y...l.<.5 e.q.q.] ] w.5 p.9.a.p.w.>.w w.[ ` o.Q $.& K G r V kXBX;X=X=XS.<.h h O.",
". . . MXI.U.;X:XT.xX, # $ @ K = > > 5 r b ' Z x V u u H s.u n n m b _ q.b B e m x M q.m 6 6 6 6 - ~ t % # k pXL.U.m.=X=X-.. . . ",
"O.D.D.vXn.F.T.T.m.;.i     7.$.=         XXu.x         3Xk.S         _.q.n         '.{ l         !.[ e     d sXF.K.S.=XS.,.I h h ",
"D.5XdXCXn.n.T.:Xn.m.d     $.D =         XX9.B         $Xg.D         ). .B         2XX.Z         ^.[ *     r bXK.K.*XK.K.#.O.O.1.",
"D.uXDXJXU.L.;Xn.L.L.s     7.B 4         ^.9.z         +Xe.D         ).y.w         '.{ c         ^.A 4     g cX<.l.=Xn.m.:.5Xh 1.",
"D.SXdXCXx.n.<.<.L.L.r     7.J 3         /.} m         `.i.l         2X..p         `.X.4         !.[ %     w NX>Xv.n.S.3.E 4Xh @.",
"D.DXdXNX-.^ I.l.x.;.d >.C.7.K % ^ ;.;X1X(.u.z g.Z.1XrX2XX.7 y.Z.<XyX2X| 6 r. X1XrX).' x t.z. X,XJ.6.5 G w.s xXH.v.:X-.:.E 4.I O.",
"D.SXuXvX<.<.I.E m.d 0 ! =. XB f.H.c.^.z.pX;.-X).oX-XZ.hX..-X).`.`.`.hX/ <X+XOX{.XXsXd.#X|.].Q.Q.7X>.f.f.r.s tXb.1.K.T -.@.4.h O.",
"D.SXuXI a I I i d p , N n D @ D ! W ' ..-.: t.q.t. .l.) 7 ) i.i.| | t.7 u.] u.p.t.,.% 0. .X.`  .! % V ! G H j y a a a a a 1.h O.",
"D.DXdXMXxXZXbXVXCXn.8 < = = D e & < S S * e.Z b H u H S 7.D e x x 6 _ w.N D e m t Z 0.M 7 V 8 5 - ~ 3 w w s kXAXVXzXzXZX1.1.I h ",
"D.SXdXZXL.T.R.8XS.<.V     7.K =         }.p.b         3X7.n         {.t.n         oX] l         ^.L @     y bXY.=XD.=X*X3.1.h h ",
"D.SXuXbXU.x.S.L.n.x.i     w.K =         %X] B         +Xt.n         XXr.H         +Xa.v         ^.[ -     F sX3.l.=X:XK.@.. . h ",
"D.DXdXnXU.n.n.I.m.,.r     7.J %         ~.{ z         +Xp.m         +Xt.k         oXX.l         ^.U *     F BXY.R.K.U.R.l.h h h ",
"D.SXdXNX<.F.S.l.,.A.i     7.J 3         '.o.c         '.u.l         OXX.6         `.X.4         N.[ $     w bXH.R.K.K.K.<.E.h @.",
"D.SXuXMXv.3.-.x.T.I.d >.C.w.J = =.>.V.1XW.} c &XoX1XlXoXu.l t.[.1XyX).| 6 w..X1XrX).8.b t.C.|.,XV.&.* K >.H BX@Xv.v.l.l.+.*Xh @.",
"D.MXdXzXl.-.n.,.L.n.5 ^ $.[.H g.H.c.^.M.1X| ].2X}.+X}.jXu.-XoX'.'.(.hX( -X+X+X}.-XsXd.#X).].Q.Q.7X*.g.H.w.d kXD.-.=XI m.1.D.. @.",
"D.DXdXsX<.E m.l.I.:., p B N @ D ! W A ] | 7 ..X.p.6.f.>.5 e.p.q.] ' r.7 ] ] a.p.r.r.% ;. .X.`  .! % ! R K r eX3.<.3.+.l.+.1.. @.",
"G.dXdXa a , i i I d d > $ @ B 3 > 5 % w 7 ^ M 6 B w k H g.w n N M M C ;.M B e M 6 M p.M 6 7 : 1 - J e 3 < F g s 0 I 0 I i 1.I I ",
"@.MX4XvXxXbXmXVXzX-.d     7.D $         _.y.t         3Xk.k         {.w.t         (.a.l         !.[ 1     F vXCXNXzXzXzX+.1.. h ",
"O.dXuXNXK.*X;X*Xn.;.V     $.D =         }.' V         #Xg.k          X0.S         +X9.l         ~.A *     F zXl.=XK.K.K.T 1.h h ",
"O.E.E.VXx.>XL.I.;X>.i     7.D %         M.' 5         }.h.N          Xt.w         oX] c         a.[ *     I zXS.=Xl.=X=XO.1.. h ",
"O.h . vXK.F.F.*XF.n.i     6.D %         z.L t         oXu.x         }. .N         (.8.-         j.~ e     r bXP.A.;XI.K.E 1.. I ",
"1.1.1.CXK.;XI.x.,.x.i R g.$.D @ R %.Z.<XV.] 5 c._.-XwX/.u.x 0.V.,XqX}. .1 w.{.,XwXoX6.b t.C.|.,Xj.~ 4 G E 8 bXA.n.=XK.l.E 1.. h ",
"O.@.O.zXT.I.l.n.I.A.8 R &.[.n e.b.t.z.a.eX;.{.).(.|.XXjXt.+X_.(.).).pXt.(.(.'.Q.#XpX2.#X~.W.Q.^.7X+.t.t.y.8 xXL.n.m.S.l.I 1.. h ",
"O.4XuXzXl.x.L.,.x.,.< 5 N u + B Y _ U ( W >  . . .0.7.f.t 0. . .| | >.3 ` o.X.i.r.w.% $.Q ` ` Q $.# _ Z Z 7 nXn.<.S.T m.:.1.. h ",
"O.uXMXvXl.+.x.+.n.Y > > % @ B e w w % w = 7.b e j u u n s.n t t 6 t M w.x 7 9 l M 4 8.x 6 5 $ t * J * $ $ p iXH.1.G.E <.T . h h ",
"O.uXDXT I f i a d r d     $.n @         N.9.z         [.7.w         V.y.v         (.9.x         ^.[ 4     d i 5 a a a 0 I . h h ",
"O.uXSXuXzXcXxXzXzXT.i     6.K 3         [.8.m         [.w.w          X/ Z         ~.] c         &XA -     p kXaXgXzXaXgXf h @.@.",
"O.uXSXuXl.4.l.x.x.n.s     K D $         ^.P z         [.e.t         XXq.M         ~.{ l         p.A -     p sX<.<.<.<.K.a O.@.1.",
"O.uXMXtX3.%.3.l.3.,.d     $.n =         a.P m         %X[ Z         ~.h.5         /.[ 2         i.A 4     y sX,.<.<.<.v.q 1.1.1.",
"O.uXMX9X:.@.-.<.:.:.s F w.K n = G +.H.$X&X9.z e.N.XXwX/.[ 4 ' C.;XqX}.' 5 &.J.$XqX[.] 4 r.x.T.;XC.A = R ! u iX,.l.<.1.@.a @.O.1.",
"O.uX4X8X#.-.#.#.+.%.a H H [.B s.>.&.i.p.tX7.M.(.}.!.[.jXq.}.Q.Q.].(.jXf.~.oX~.!. XpX*.Y.Z.M.z.y.7X=.s.d.%.a tX1.l.<.:.I q 9X. 1.",
"O.5XD.6XT -.T F T E j > u B @ w F G A Q 7.# ' ` q.;.;.w.4 ( | | | | s.t ] ` { h.&.*.k w.( U ( / ! > G N H F iX#.O.O.+.I q 1.. 1.",
"O.h . 8Xa h #.g g #.f & O @ S = , % w r 5 ~ 4 M w s b m / Z p p 6 M 5 &.b x m M 3 N 0.5 p 6 : 5 1 ! * 5 , y 0Xh f I h I a @.. 1.",
"1.@.h 5Xa q h g g I 0     K B =         C.J t         [./ V         V.0.t         !.8.4         w.J 3     a 6XG q f f f q 1.. 1.",
"1.1.@.g f f f g g f G     =.S =         t.~ t         !. .:         V.e.4         }.] 6         p.m 3     a f f f f y h q . . 1.",
"h h h h f y y h g q a     =.n w         c.&.w         Z.) p         P.0.t         V.&.p         w.G >     q f f q f q h q h h I "
};
