/* XPM */
static char *e867c9e1e7264c36e1b14fb792bddc26FNH1OUgghuE5it5i[] = {
/* columns rows colors chars-per-pixel */
"64 64 239 2 ",
"   c #3D1D01",
".  c #3F2200",
"X  c #421F02",
"o  c #471E06",
"O  c #452401",
"+  c #4B2501",
"@  c #462A02",
"#  c #4C2B03",
"$  c #45230A",
"%  c #4A260B",
"&  c #4C2C0A",
"*  c #452A0A",
"=  c #512D04",
"-  c #522D0B",
";  c #562C04",
":  c #4E320B",
">  c #4F3004",
",  c #533204",
"<  c #54330C",
"1  c #5A350C",
"2  c #5B3A0D",
"3  c #593506",
"4  c #4C2B12",
"5  c #532D12",
"6  c #522E18",
"7  c #4E3315",
"8  c #553512",
"9  c #5A3513",
"0  c #5B3B13",
"q  c #553419",
"w  c #5C3C1A",
"e  c #583819",
"r  c #633B0A",
"t  c #613D13",
"y  c #623D1C",
"u  c #603513",
"i  c #5C3A25",
"p  c #633E22",
"a  c #5D4218",
"s  c #5E400E",
"d  c #6C450E",
"f  c #634214",
"g  c #64431C",
"h  c #6A441C",
"j  c #6B4A1E",
"k  c #6A4617",
"l  c #734C1D",
"z  c #764A18",
"x  c #78531E",
"c  c #644422",
"v  c #694522",
"b  c #6C4B24",
"n  c #6D4D2A",
"m  c #654727",
"M  c #734E25",
"N  c #724D2A",
"B  c #6E5128",
"V  c #735224",
"C  c #7A5425",
"Z  c #74532C",
"A  c #7A552A",
"S  c #7D5A2D",
"D  c #775928",
"F  c #755532",
"G  c #7B5633",
"H  c #7C5B33",
"J  c #7D5C3A",
"K  c #775637",
"L  c #6E4E32",
"P  c #7E6237",
"I  c #5E4624",
"U  c #7C6142",
"Y  c #835E2C",
"T  c #845B25",
"R  c #825C34",
"E  c #825D3A",
"W  c #815633",
"Q  c #8B642B",
"!  c #846334",
"~  c #8B6534",
"^  c #8D6934",
"/  c #83633C",
"(  c #8A653B",
")  c #8D6B3C",
"_  c #85693C",
"`  c #936C35",
"'  c #936D3C",
"]  c #9B6C38",
"[  c #8F713F",
"{  c #94723D",
"}  c #9A723D",
"|  c #9F7135",
" . c #A6793C",
".. c #B47E3E",
"X. c #846541",
"o. c #896641",
"O. c #876A44",
"+. c #8C6C43",
"@. c #8D6D4A",
"#. c #87684B",
"$. c #926D42",
"%. c #926E4B",
"&. c #996E44",
"*. c #8E7144",
"=. c #8D714D",
"-. c #947344",
";. c #9B7443",
":. c #9C7945",
">. c #94744B",
",. c #9A764B",
"<. c #9B7A4C",
"1. c #96794D",
"2. c #957453",
"3. c #9A7652",
"4. c #9C7B54",
"5. c #9D7C5A",
"6. c #967A56",
"7. c #8D6B50",
"8. c #A47A45",
"9. c #A57C4B",
"0. c #A57944",
"q. c #A27D54",
"w. c #A37E55",
"e. c #9F7D64",
"r. c #B0843E",
"t. c #9D8259",
"y. c #A5814C",
"u. c #AC834A",
"i. c #AC8346",
"p. c #B68543",
"a. c #BC8A45",
"s. c #B5854A",
"d. c #B58A4C",
"f. c #BC8B4B",
"g. c #BA8747",
"h. c #BD924E",
"j. c #A48355",
"k. c #AB8454",
"l. c #AC8A55",
"z. c #A5845B",
"x. c #AA865B",
"c. c #AC8A5C",
"v. c #A48855",
"b. c #B38A54",
"n. c #BB8C53",
"m. c #B38C5D",
"M. c #BB8D5A",
"N. c #B38654",
"B. c #AE915E",
"V. c #BB9155",
"C. c #B3925D",
"Z. c #BC935B",
"A. c #BD995F",
"S. c #9C8165",
"D. c #A58462",
"F. c #A58962",
"G. c #AC8C63",
"H. c #AC8C69",
"J. c #A68767",
"K. c #B18E63",
"L. c #B18F6A",
"P. c #B88F63",
"I. c #AE9164",
"U. c #AE926B",
"Y. c #B49364",
"T. c #BB9464",
"R. c #B69964",
"E. c #BA9A64",
"W. c #B4946B",
"Q. c #B9966B",
"!. c #B6996C",
"~. c #BB9B6D",
"^. c #AE9473",
"/. c #B49573",
"(. c #B59973",
"). c #BB9B73",
"_. c #B69B7B",
"`. c #BB9D7B",
"'. c #B79675",
"]. c #AA8C72",
"[. c #BDA274",
"{. c #BDA17A",
"}. c #B7A076",
"|. c #C28B45",
" X c #C28D4B",
".X c #C3914D",
"XX c #C4934B",
"oX c #C28D52",
"OX c #C49353",
"+X c #C4945B",
"@X c #C59A5D",
"#X c #C99757",
"$X c #CCA15E",
"%X c #C39B63",
"&X c #CA9E65",
"*X c #C69B6A",
"=X c #C29F77",
"-X c #CCA263",
";X c #CCA46B",
":X c #C7A56B",
">X c #D2A564",
",X c #D4AA66",
"<X c #D2A66C",
"1X c #D4AA6C",
"2X c #DAAC6B",
"3X c #D9A668",
"4X c #C3A275",
"5X c #CAA572",
"6X c #CCAA75",
"7X c #C4A47B",
"8X c #CAA67C",
"9X c #CCAC7D",
"0X c #C4A87A",
"qX c #D2A772",
"wX c #D4AB73",
"eX c #D9AD73",
"rX c #D2AE7D",
"tX c #CEB07D",
"yX c #DBB274",
"uX c #D3B27D",
"iX c #DCB57A",
"pX c #DAB16E",
"aX c #BB9E81",
"sX c #BFA582",
"dX c #CDAD83",
"fX c #CDAD89",
"gX c #C7A782",
"hX c #D1AE82",
"jX c #D1AC88",
"kX c #CDB284",
"lX c #CFB288",
"zX c #D3B384",
"xX c #DBB985",
"cX c #D4B48B",
"vX c #D9B58B",
"bX c #DBB98A",
"nX c #D8B787",
"mX c #D8B994",
"MX c #E2C198",
/* pixels */
"9XzXF.H.}.[.Q.4.! kXjXzXnXtXlX0XgXG t.!.!.[.{.^.^._._.L 5.W.W.W.W.W.I.~.G.~.~.L.# / X.O.@.0 @.=XdXzX4.Y.W.).{.W.=X& nXcX7XjXzXzX",
"cXfX& H $.%.b 9   L #.#.G M n I 9   q L J O.2.#.*.P X.@ a z.j.j.t.c.R.I.Y.).W.K.& G.t.(.z.o.P.=XgXL.# H 4.j.q.,.y cXO.~.dX).,.-.",
"e O W 5XqX*XZ.Y.~.Z 2 m.%X@XN.k.l.Q.& n G.c.z.W.m c P Z ( z.x.G.F >.!.R.~.Y.Y.2 Y ) t & & 2 V S W + h T.n.*XZ.;X5X{ Y.; u.i.d.l.",
"F.0 $.<X2X>X1X&XZ.d $XV.r.XXXXf.#X%Xl G.G.Y.R.R.m 2.G.G.x.c.c.G.G.g W.~.R.K.j.D -.) ' ( ;.:.) Q } Y -X<XiX>XeX2X>X3X' ] XXa. XoX",
"J.{.1 wX1X2X;X;XhX3 Z.f.a. XOXg.s.qXy J.J.H.).!.N z.G.c.c.z.c.W.D.H b W.).G.= $.' ;.` ] ^ ' } ' ` Q E.;X1XwX;XeX>XiXm.9.g.#Xg.r ",
"e e O # f l # b 1 C n.f.#XoXg.OX Xs.+ y 8 w 0 V - O < = t j M 0 Z # O & b < 9 $.' Y ` ] } ' ' ' >.2 t <.A V C y h b   < H l 1 @ ",
"(.(.7XH.j +.+.>.Q.T h.f. X..g. X|.g., *.G.I.G.x.G.F.L.0 ).W.9X).*X7X4X).W.h M $.0.~ 0.] ' ~ ~ ,.( +.'.K.G.c.G.G.D.O.t.@.=.1.z.6.",
"C.E.!.R.x *.{ t b l f.a.a.n.OXg.oXM.< e 8 e w w < v v H g z.dXzXzX9XzXkXzX9X= ' ' ,.] } ~ } ) ! < Q.c.m.m.c.c.l.x.! { { $.-.) { ",
"Y.~.).Y.2 ' ~ b.m.Y f.g. XoXn.n..X0.K !.B.).L.Y.Y.K.Y.~.W.t cXnXuXuXuX9XxX9XO @ n W Y ! A V < W.F.( G.H.F.4.0 w $ w @.>.) -.-.:.",
"F N 0 0 < M H $.$.d  XOXoXg.g.f.n.; $ a 0 5 e b n n Z 0 O + c g N N N G 5 - p w 5 1 l 9.x.5 & K J n b f f 3 1.!./ O _ *.,.( *.[ ",
"Y.).H I.v.K.j.l.K.z oX X|.XX|.XXb.o cX9XxXvXvX6X5XxXzXzXdXnX).V wXqX&XeXeX3X<X&XyX>X$X3XeXl W.G.~.~.Q.G.Y.~.Q.W.W.z.O j ! -.1.[ ",
"B.Y.) c.C.x.m.c.x.l M.g.a.f.p.g.V.C hXuX6XzXrXxXxXuXxX).dX4XnXO wX;XwX3X&X2X&XyX&X<X>XwX6Xr W.!.B.!.Y.~.~.W.D./.H.~.G./ j *.) P ",
"K 8 4 & e p v 5 @ s d.V.n. .N.M.,.N gX4X)./.'.I.G.H.W.D.6.J.p O r ~ k.%X;X@XZ.;XZ.<X1X:Xy.> ! v.z.2.5.3.4.,.+./ >.j.z.3.O F / 2 ",
"t./.aX_.J.G '.F t.~.y.0.E.Q.P.= l j.x.y.S . v ! S ! E H - g %.5.#.L F @.z.2.H O o 5 p n K J #.@.6.L # 2 y.E.u.u.,.X # N b M A ! ",
"(.W.(.W.B !.~.Y.B kXxXuXzXzX9Xt iX<X>X,XwXs ' ` ` ` } S M W.Y.c.v.v.B.j.Y.m.x.K.U n >.z.z.D.D.1.( j 3 N.V.g.#Xa.m.r ,.&.) $.{ ^ ",
"U.(./.'.: W.!.4Xm F.uXuXtXzX5X( <XeX3X2XqX< %.` { { ( ) 1.x.K.G.c.c.v.m.j.m.c.K.G.M ,.Y.W.I.G.V i.f.d..X Xf.OX XM.r ^ ;.^ ^ ` ` ",
"b A Z b H Q.~.Y.H.& / 9X=X9XP , m 2 h v b O : b h d t X m F.l.c.c.x.c.c.c.x.c.c.x.H.F 4.z.G.+.< Q ` 0.g.d.d.0.0.T R $.$.R Y C Y ",
"W.cX).< W.Y.x.x.).O O >.3.4.x.z.x y.+Xn.s.s.i.` w.n.N.y n v.Y.K.c.x.m.K.m.c.K.c.c.Q.# ,.G.z.K.q.@.8 O w E z.Q.Q.,.N Z , = ~.5X:X",
"V j , -.Q.W.R.Q.Q.0 t.>.-.>.-.<.0.0.OX Xg.|.OX XoXg.d.] 1 c.c.x.x.x.K.c.x.m.c.x.W.>.z.K.q.c.,.m.Y.-.<.4XxXuX4XrXxX6XuXdX& 8 w y ",
"c.H.# I.!.G.~.W.H.@ +.4.z._ 3.+.O.j f..Xa. Xf.f. X XOX+X= >.-.w.z.x.x.z.z.z.c.4.o.O 3.G.K.K.x.G.c.>.Y.zXhXhXzXzXdXjXdXjXj.>.!.W.",
"v < g H f 2   w Z F 2 0 A S o.$.@.; %Xg.f..Xh.f.f.|.d.M.S O O & & : & * : : * . * * : J H b 0 a & * * : w a 8 8 g f & @ ! +.0 : ",
"n 4.H.z.z.H.e fXfXdX7X7X).0X=X).@.+ d. Xa.a.|..Xg.n.f.oXl.* J.{.{._.}.{._.{.{.^.(._.^.(._.fXB P -.*.:.[ ! *.:.{ -.) , v.'.(././.",
"@ W.z.Y.G.K.3.8 < n +.1.3.+.j.K.dX0.oXoXf. XoXf.d.oXs.r.| g _././././.(.'.'.'.H.{.U.{.(.W.'.c @.' -.$.( -.%.) -.@.q F W.Y.E.R.C.",
"0 c.c.b.m.z.z.g @.2.1.4.G.c.G.Q.^.+.d &.0.;.0. . .| | r.| v %.~./.W.).`.).'.).).(.).W.W.W.`.Z +.O._ / _ _ P H O.J : >.W.R.Y.~.Y.",
"w & & u N g C C n = ] M. .T z E y @ >.G w g w v _ X.4 $ & E E H / ,.&.%.$.&.( F O % m m 0 w : c a 7 $ & O c y y 7 . s 2 h y 1 f ",
"W.g -.' 0.~ ~ ` +.= V.g.|.OXg.d.' ~.zXzXzXkXxXtXzXnXzX0 :XwXyX;XwX&XiX<X1X<X;XwXuX# Q.).R.R.~.I.R.!.{.: cX9XzXnXcX! i.@X Xd.g.OX",
").+ -.` ` ` } ] ) 3 u.n.f.|.|.a.y.4XzXzXzXzXzXnXzXjXzX:.E.$X>X>X&X&X@X2X3X,X2X>XrXM v.C.B.R.Y.E.Y.R.W.A zX9XxXuXcX!.b.d.oXoX X|.",
"E 0 ) ;.' } ' ( +.= &.m.N.n.n.| < # 4X=XfXgX7X).gX=Xz.+ -.qXZ.*XT.%X*X%X&X&X%X;XQ.O G.'.~.Y.m.Y.W.W.'.8 dXnX8XjX{.s { V.u.d.n.i.",
"+ o.' ' 8.' Y $.' $.+ + ; C -.B.W.W.c.z.z.t.& * O.6.2.6.5.t.5.5.D.J 0 H R A S R ! G m J.L.Q.).Y.Q.Y.2.= j M C j b N y o H 0 h $.",
"f ' { ^ ;.` ^ } { ^ ! @ H.I.!.!.R.Y.E.Y.Y.R._ z.!.W.{._.`.).(._.^.P : # f B k g 2 2 < a K.Y.Y.Q.E.Y.= -.` { ~ ! ] ] } r <X1X;XwX",
") { :.} { ' { ^ ` -.-.j ).I.I.Y.Q.Y.!.Y.Y.W.P U.).{.W./.{.(.(./.(.O U.W.W.G.R.W.~.W.(.w 4.Y.Y.Q.Y.-.V ( :.' ) -.' &.$.1 qX<XeX&X",
"j j 0 9 9 9 b C M 0 O * & J E H b B G Z / E $ 4 G J K K n m w a * O 0 h n b g v f m w $ & F @.@.Z & y h t 9 h w 2 e w O wX&X$X2X",
"Y.Y.Y.Q.2 >.I.R.Y.R.Y.U.W.0 x.x.K.D.v Z A S S R W T Y S A 9 l.+X@X#X#X+Xd P.).9X9X9XcXdX9XhX9XhXuXuXdXO Y.Y.E.m.Y.Q.W.O qX1X&XwX",
"z.W.W.).6.z.(.R.C.~.H.G.-.+.K.K.c.v.! 1 ) ' ' ' -.' ^ ` ;.; N.a.V.f.d.%Xh jXcXdXlXQ.jXcXvXzXzXnXdXmXmXc D.).W.Q.E.K.!.> eX#X>XZ.",
"Y.Q.R.Y.>.g Q.R.W.~.'.W.O D.z.c.c.m.<.M $.{ ' ' ) -.;.$.) + #Xa.|.f.V.y.1 H.(.~.W.=X).4X0X0XgX0X0XI.H.{.. *.!.!.Y.(.W.# %XeX1Xr ",
"& < w w $ & O 8 g > @ # O @ 8 # # - O & - = @ @ < < = + N R s. X Xf.T f g Z n , 8 < f , 2 0 < b G 8 9 y m 8 8 & 8 & e e O O = & ",
"H +.~.G.W.W.~.z.J.X.1.5.6.z.o.1.z.4.%.5.c.4.+.2.zXzXcX- Y.~ +Xa.oXT R W.W.(.W.W.w $.` ;.;.( r rX1XV.wX;XyXiXx.Q./.aXaX_.2.jXmXjX",
"mXgXO @.7.c m E B & X.( <.*.-.3.,.$.$.) -.{ S dXuX6X9X9XS i.s.a.` 3 o.F n w b b - $.' ' ( &.; qX;X1X;X1XeXxXu v 0 a B 2 7XbXjXkX",
"7XW.S 9XgXfXzXcXfX& 1.) -.*.*.-.} :.-.:.) [ t =XY.8X4XdXrX, 0.] g /.`._.W.!.'.).H.< ( ) ,.$.Y 1X,X,X2X2X>X;X:.P.z.I.G.2 zXzXzXzX",
"J P Z =.< 9 J ! g @ *.-.} -.! -.O.>.+.-.*.( O e b G m & z.hX8XgX^.* i c n b c m I b 2 - + N qX>X<XwX3X<X1X5X# e w 0 F N b v w 0 ",
"!.W.Q./.5 e.m.m.H.> +.;.{ ) -.*.>.$.1.6.*.+ m.n.+XqXqXwX0.r 2 7Xg ' -.[ t.' -.*.} *.-.f %X<X>X2X3X3X>X>XwX<Xl -.`  .] ;.9.8.:.! ",
"R.E.C._ +.c.m.l.w.= 3.%.&.} ,.*.:.-.-.) . B.:XwX3X>XyX;X1X1X6X! o.*.-.-.-.,.*.-.! *.: >.5XqX@X<XwXqXeX<XeX5X2 P $.' ' ' } ;.! j ",
"x.G.v._ X E ,.x.S & $ 8 8 B F I 8 7 b # = R ' ( ^ ) <.k.m.k.x.e B Z S ! A H ! H / F O O Y 9.M.9.Y ~ k.N.( 1 O * b g / G ( S D H ",
"*X*X*Xc.x.w.w.9.1.. U S.J.S.=.#.. K b D R W / S M # z.G.9./ 3.G.O.# } 8.b.8.9.Q = 9X`.0XhXiX=X%X~.T.Q.~.E P (.aX(.J.e 9 P H Z Z ",
"eX>X$X2X-XV.eX<XqX, Q.'.(.Q.[.(.H ,.8.} ] ] { ' ' V / ~.Y.4XC.!.S m.b.#Xs.#X&X@Xq.h cX9X6XzXbXnXuXtXzXnXB U.U.^.(.D.5.L.Y.v.G.c.",
"yXeXyX>X<XwX:X2XrX) J.`./.aX/._.J ! ' ' ' ;.^ ` -.$.w b c.Y.Q.(.r i.f..X X#Xg.OXn.x Y.zXxXzX9X4X9XbXzXW.Z }.W.(.H.`.D.w.c.m.c.G.",
"t h b y N N d C _ # O O 0 c 8 m O 8 g g 0 g N f - - /.F.2 g F c d @Xf.a.|.|.f.f. Xn.1 t h b A P <.+.H < g D H I Z P O F.K.m.c.K.",
"~.Y.F.'.%.O -.M.a.OXV.n. Xf.Z.2 cXcXnXmXn H c.l.R.G.v.> ! -.-.> M.n.a..XOX Xn... X XR P./.).W.W.Q.1 Y.(.U.U.(.0 W.H.z.x.:.m.j.G.",
"P.Y.W.(.W.G.T oXOXf.|.r. XZ.f 7XzXzXcXfXcXn R K.M.m.F.  9 v t R  Xg.oX|.f.n. Xf.|.s.;.+.!.!.Y.Q.'.@.Y.G.T.~.G.1 Y.~.j.f 4.x.v.j.",
"~.Y.R.R.v.j.r n.n.n.d.OXV.T 4XjXzX9XdXnXzXS t.c.v.x.o.4.o.2.) ! g.p.0.s.s.s.s.i.8.0.2 4.F.4.4.1.4.+.H W.Q.~.'.@ W.K.E R.<.-.z.4.",
"$ e 4 m q o % & & + - + O % i i P #.X.a 8 & I i & # X b ! S g O y p m - & - 8 & # = 8 w < : * e i g X Q.~.H.G.8 Z - % G v 0 g c ",
"zXbXuXuX~.cX+.# 1.*.$.>.( < z.2.e.J.].F.^._.J.e.^.7 ).).=X0X4X}.2 z.G.I.Y.W.W.G.6.m =.J *.>.a fXdXdX).W.t.c.=.+.{ Y x y.-Xh.#XOX",
"zX9X9X9X9XzXzXa P *.>.+.*.# !._.(.(.I.}.}.U.W.W._.n W.W.~.Y.(.gX0 (.1.~.R.I.Y.R.W.m j.>.-.>.f 0 g j # ~.Y.~.< -.>.=.; P.n.n.#Xr.",
"9XxX6XzX9XzXzX6X2 *.[ -.g < U.(.H.W.}.`.I.(.7X).!.@ Y.W.Q.G.W.G.j I.z.R.).W.v.!.Y.b +.+.-.{ 4.B W.W.F I.R.1.j >.>.+.( r n.V.#X#X",
"$ % q 4 + 5 9 0 h G y 9 $ o q i e O 4 4 8 8 < , , = c.W.Y.R.).0 o 6 $ $ 4 4   4 @ : n B @ O 1 & 0 w 8 a g @ @ < w Z % X = 1 W ; ",
"o.c.c.-.V 9.n.f.h.V.%X@Xx { ) f I.~.I.G.W.-.y.d.N.l.d R.Y.Q.w.,.c.I.D dXcXcXlXkXnXmX5.c aXsX/.`.'.`.'.`.^.: cXcXuXhXzXnXkXbXg W.",
"&X*Xz 0.OXf..Xf. Xn.Z.r $.' ! + v N ( $.%.u 8.@XOXn.= _ U.U.h x.x.Y.3.hXtXuXzXtXuXnXfX% & , 9 - f g g 0 O *XrXzXhX8X9XrXvXrXW j.",
"5X%Xx l.u.d. .N.g.f.3 ` ;.C C.:X:X1X;X6XuXb.Q a.n.Q j.R G.o.x.c.w.4.3.5.dXjX9XhX6XzXG.% n ! $.>.) -._ A j.9XxXwXzXm.xXrXzXzXr 8X",
",.g   c.<.! @ :.;.v y y e $ w e 5 5 e * 4 8 % O + & G E X.N < V +.= 0 @.Y.4.t w.x.' h 4.v.S h g b ) v n zXbXrXxXrXzXrXzX5XG.h o.",
"!.K.g U.I.).w fXdXzXnXcX`.( W.4.Y.~.G.@ `.U.).2.O 9X:X&X,X,X,X2X:X# xXbXuXzXrXh m.r K.K.K.<.v.G.c.Y.g dXvX6XzX*XxX6XzXhXbX! !.).",
"j.Q.P /.`.W._ t.8XcXdXzX# W.W.Q.z.W.G.c 6.(.(._.H.0 hX;XqX&X3X<XE.' 9X9X9XxX6X4X+ x.m.m.Y.K.,.x.c.K.v MX~.zXzXbXrXbXdXzXgX*.).I.",
"H.Y.Z %.0XW.W.< 9X6X9Xt.D C.C.x.I.U.O.O.(.U.].^.(.o.t wX;X1XwXqX+.o.).dX).G.2.%.# c.j.c.j.z.v.c.z.4.  +.z.!.4X8XzX8X0XQ.b & gX(.",
"b X.& n !.c.x.G.O X.J X.J J 5.K X.6.$ S.sX(././.].aXK & < < t u n n B G Z ) E w : =.Y.K.x.z.z.G.G.b 1.W.z.! b Z ,.# & F H w 0 b ",
"cXfX).b !.R.~.G.V 0X9XkXlXkX{.fX[.gXa !.!.~.(.{.(.U.}.c 6.R.W.Y.I.[.W.Y.Y.R.~.U.4 J ) x.w.3.>.) H O H.U.R.).W.z.W./ cX).fX).mXkX"
};
